<svg width="220" height="47" viewBox="0 0 220 47" fill="none" xmlns="http://www.w3.org/2000/svg">
<rect width="220" height="47" rx="23.5" fill="#4098F8"/>
<path d="M55.4782 17.4091V30.5H52.7425V19.6591H47.4498V30.5H44.714V17.4091H55.4782ZM62.4983 30.6918C61.5054 30.6918 60.6468 30.4808 59.9223 30.0589C59.2021 29.6328 58.646 29.0405 58.254 28.282C57.8619 27.5192 57.6659 26.6349 57.6659 25.6293C57.6659 24.6151 57.8619 23.7287 58.254 22.9702C58.646 22.2074 59.2021 21.6151 59.9223 21.1932C60.6468 20.767 61.5054 20.554 62.4983 20.554C63.4912 20.554 64.3477 20.767 65.0679 21.1932C65.7923 21.6151 66.3506 22.2074 66.7426 22.9702C67.1347 23.7287 67.3307 24.6151 67.3307 25.6293C67.3307 26.6349 67.1347 27.5192 66.7426 28.282C66.3506 29.0405 65.7923 29.6328 65.0679 30.0589C64.3477 30.4808 63.4912 30.6918 62.4983 30.6918ZM62.5111 28.5824C62.9628 28.5824 63.3399 28.4545 63.6425 28.1989C63.945 27.9389 64.173 27.5852 64.3264 27.1378C64.4841 26.6903 64.5629 26.1811 64.5629 25.6101C64.5629 25.0391 64.4841 24.5298 64.3264 24.0824C64.173 23.6349 63.945 23.2812 63.6425 23.0213C63.3399 22.7614 62.9628 22.6314 62.5111 22.6314C62.0551 22.6314 61.6716 22.7614 61.3605 23.0213C61.0537 23.2812 60.8215 23.6349 60.6638 24.0824C60.5104 24.5298 60.4337 25.0391 60.4337 25.6101C60.4337 26.1811 60.5104 26.6903 60.6638 27.1378C60.8215 27.5852 61.0537 27.9389 61.3605 28.1989C61.6716 28.4545 62.0551 28.5824 62.5111 28.5824ZM68.3343 33.3764V28.3395H69.0885C69.3058 28.2031 69.4806 27.9858 69.6127 27.6875C69.749 27.3892 69.8598 27.0376 69.945 26.6328C70.0345 26.228 70.1027 25.7912 70.1496 25.3224C70.2007 24.8494 70.2455 24.3722 70.2838 23.8906L70.5395 20.6818H78.0693V28.3395H79.5906V33.3764H76.9955V30.5H70.9933V33.3764H68.3343ZM71.7987 28.3395H75.4997V22.7784H72.8534L72.7512 23.8906C72.6787 24.9389 72.5743 25.8295 72.4379 26.5625C72.3016 27.2912 72.0885 27.8835 71.7987 28.3395ZM83.9772 30.6854C83.3508 30.6854 82.7925 30.5767 82.3025 30.3594C81.8124 30.1378 81.4246 29.8118 81.1391 29.3814C80.8579 28.9467 80.7172 28.4055 80.7172 27.7578C80.7172 27.2124 80.8174 26.7543 81.0177 26.3835C81.218 26.0128 81.4907 25.7145 81.8358 25.4886C82.181 25.2628 82.5731 25.0923 83.012 24.9773C83.4552 24.8622 83.9197 24.7812 84.4055 24.7344C84.9765 24.6747 85.4367 24.6193 85.7861 24.5682C86.1356 24.5128 86.3891 24.4318 86.5468 24.3253C86.7045 24.2187 86.7833 24.0611 86.7833 23.8523V23.8139C86.7833 23.4091 86.6555 23.0959 86.3998 22.8743C86.1483 22.6527 85.7904 22.5419 85.3259 22.5419C84.8358 22.5419 84.4459 22.6506 84.1562 22.8679C83.8664 23.081 83.6746 23.3494 83.5809 23.6733L81.0624 23.4688C81.1903 22.8722 81.4417 22.3565 81.8167 21.9219C82.1917 21.483 82.6753 21.1463 83.2677 20.9119C83.8643 20.6733 84.5546 20.554 85.3387 20.554C85.8841 20.554 86.4062 20.6179 86.9047 20.7457C87.4076 20.8736 87.8529 21.0717 88.2407 21.3402C88.6327 21.6087 88.9417 21.9538 89.1675 22.3757C89.3934 22.7933 89.5063 23.294 89.5063 23.8778V30.5H86.9239V29.1385H86.8472C86.6895 29.4453 86.4786 29.7159 86.2144 29.9503C85.9502 30.1804 85.6327 30.3615 85.262 30.4936C84.8912 30.6214 84.463 30.6854 83.9772 30.6854ZM84.757 28.8061C85.1576 28.8061 85.5113 28.7273 85.8181 28.5696C86.1249 28.4077 86.3657 28.1903 86.5404 27.9176C86.7151 27.6449 86.8025 27.3359 86.8025 26.9908V25.9489C86.7172 26.0043 86.6001 26.0554 86.4509 26.1023C86.306 26.1449 86.142 26.1854 85.9587 26.2237C85.7755 26.2578 85.5922 26.2898 85.409 26.3196C85.2258 26.3452 85.0596 26.3686 84.9104 26.3899C84.5908 26.4368 84.3117 26.5114 84.0731 26.6136C83.8344 26.7159 83.6491 26.8544 83.517 27.0291C83.3849 27.1996 83.3188 27.4126 83.3188 27.6683C83.3188 28.0391 83.453 28.3224 83.7215 28.5185C83.9942 28.7102 84.3394 28.8061 84.757 28.8061ZM90.6329 22.8232V20.6818H99.5306V22.8232H96.3666V30.5H93.7714V22.8232H90.6329ZM102.888 23.6989H105.822C107.122 23.6989 108.136 24.0099 108.865 24.6321C109.593 25.25 109.958 26.0767 109.958 27.1122C109.958 27.7855 109.794 28.3778 109.465 28.8892C109.137 29.3963 108.664 29.7926 108.046 30.0781C107.429 30.3594 106.687 30.5 105.822 30.5H101.181V20.6818H103.783V28.3587H105.822C106.278 28.3587 106.653 28.2436 106.947 28.0135C107.241 27.7834 107.39 27.4893 107.394 27.1314C107.39 26.7521 107.241 26.4432 106.947 26.2045C106.653 25.9616 106.278 25.8402 105.822 25.8402H102.888V23.6989ZM115.424 27.7195H118.064C118.077 28.0433 118.222 28.299 118.499 28.4865C118.776 28.674 119.134 28.7678 119.573 28.7678C120.016 28.7678 120.389 28.6655 120.691 28.4609C120.994 28.2521 121.145 27.9538 121.145 27.5661C121.145 27.3274 121.086 27.1207 120.966 26.946C120.847 26.767 120.681 26.6264 120.468 26.5241C120.255 26.4219 120.008 26.3707 119.726 26.3707H118.314V24.5874H119.726C120.148 24.5874 120.472 24.4893 120.698 24.2933C120.928 24.0973 121.043 23.8523 121.043 23.5582C121.043 23.2259 120.924 22.9595 120.685 22.7592C120.451 22.5547 120.133 22.4524 119.733 22.4524C119.328 22.4524 118.991 22.544 118.723 22.7273C118.459 22.9062 118.322 23.1406 118.314 23.4304H115.687C115.695 22.8423 115.872 22.3331 116.217 21.9027C116.566 21.4723 117.035 21.1399 117.623 20.9055C118.216 20.6712 118.878 20.554 119.611 20.554C120.412 20.554 121.103 20.6669 121.682 20.8928C122.266 21.1143 122.714 21.4318 123.025 21.8452C123.34 22.2585 123.498 22.7507 123.498 23.3217C123.498 23.8416 123.327 24.2763 122.986 24.6257C122.645 24.9751 122.168 25.2244 121.554 25.3736V25.4759C121.959 25.5014 122.326 25.6101 122.654 25.8018C122.982 25.9936 123.244 26.2578 123.44 26.5945C123.636 26.9268 123.734 27.321 123.734 27.777C123.734 28.3864 123.555 28.9084 123.197 29.343C122.843 29.7777 122.353 30.1122 121.727 30.3466C121.105 30.5767 120.391 30.6918 119.586 30.6918C118.802 30.6918 118.098 30.5788 117.476 30.353C116.858 30.1229 116.366 29.7862 116 29.343C115.638 28.8999 115.446 28.3587 115.424 27.7195ZM128.204 30.6854C127.577 30.6854 127.019 30.5767 126.529 30.3594C126.039 30.1378 125.651 29.8118 125.366 29.3814C125.084 28.9467 124.944 28.4055 124.944 27.7578C124.944 27.2124 125.044 26.7543 125.244 26.3835C125.445 26.0128 125.717 25.7145 126.062 25.4886C126.408 25.2628 126.8 25.0923 127.239 24.9773C127.682 24.8622 128.146 24.7812 128.632 24.7344C129.203 24.6747 129.663 24.6193 130.013 24.5682C130.362 24.5128 130.616 24.4318 130.773 24.3253C130.931 24.2187 131.01 24.0611 131.01 23.8523V23.8139C131.01 23.4091 130.882 23.0959 130.626 22.8743C130.375 22.6527 130.017 22.5419 129.552 22.5419C129.062 22.5419 128.672 22.6506 128.383 22.8679C128.093 23.081 127.901 23.3494 127.807 23.6733L125.289 23.4688C125.417 22.8722 125.668 22.3565 126.043 21.9219C126.418 21.483 126.902 21.1463 127.494 20.9119C128.091 20.6733 128.781 20.554 129.565 20.554C130.111 20.554 130.633 20.6179 131.131 20.7457C131.634 20.8736 132.079 21.0717 132.467 21.3402C132.859 21.6087 133.168 21.9538 133.394 22.3757C133.62 22.7933 133.733 23.294 133.733 23.8778V30.5H131.15V29.1385H131.074C130.916 29.4453 130.705 29.7159 130.441 29.9503C130.177 30.1804 129.859 30.3615 129.489 30.4936C129.118 30.6214 128.69 30.6854 128.204 30.6854ZM128.984 28.8061C129.384 28.8061 129.738 28.7273 130.045 28.5696C130.351 28.4077 130.592 28.1903 130.767 27.9176C130.942 27.6449 131.029 27.3359 131.029 26.9908V25.9489C130.944 26.0043 130.827 26.0554 130.677 26.1023C130.533 26.1449 130.369 26.1854 130.185 26.2237C130.002 26.2578 129.819 26.2898 129.636 26.3196C129.452 26.3452 129.286 26.3686 129.137 26.3899C128.817 26.4368 128.538 26.5114 128.3 26.6136C128.061 26.7159 127.876 26.8544 127.744 27.0291C127.611 27.1996 127.545 27.4126 127.545 27.6683C127.545 28.0391 127.68 28.3224 127.948 28.5185C128.221 28.7102 128.566 28.8061 128.984 28.8061ZM141.598 30.5V22.8168H139.757C139.259 22.8168 138.88 22.9318 138.62 23.1619C138.36 23.392 138.232 23.6648 138.236 23.9801C138.232 24.2997 138.355 24.5703 138.607 24.7919C138.862 25.0092 139.237 25.1179 139.732 25.1179H142.506V26.9588H139.732C138.892 26.9588 138.166 26.831 137.552 26.5753C136.938 26.3196 136.465 25.9638 136.133 25.5078C135.801 25.0476 135.637 24.5128 135.641 23.9034C135.637 23.2642 135.801 22.7038 136.133 22.2223C136.465 21.7365 136.941 21.3594 137.559 21.0909C138.181 20.8182 138.914 20.6818 139.757 20.6818H144.136V30.5H141.598ZM135.36 30.5L138.089 25.3864H140.691L137.968 30.5H135.36ZM146.252 30.5V20.6818H150.438C151.649 20.6818 152.605 20.9119 153.309 21.3722C154.012 21.8324 154.363 22.4865 154.363 23.3345C154.363 23.8672 154.165 24.3104 153.769 24.6641C153.372 25.0178 152.823 25.2564 152.12 25.38C152.708 25.4226 153.208 25.5568 153.622 25.7827C154.039 26.0043 154.357 26.2919 154.574 26.6456C154.796 26.9993 154.907 27.3913 154.907 27.8217C154.907 28.38 154.757 28.8594 154.459 29.2599C154.165 29.6605 153.733 29.9673 153.161 30.1804C152.595 30.3935 151.902 30.5 151.084 30.5H146.252ZM148.789 28.4609H151.084C151.463 28.4609 151.759 28.3714 151.973 28.1925C152.19 28.0092 152.299 27.7599 152.299 27.4446C152.299 27.0952 152.19 26.8203 151.973 26.62C151.759 26.4197 151.463 26.3196 151.084 26.3196H148.789V28.4609ZM148.789 24.7216H150.496C150.769 24.7216 151.001 24.6832 151.193 24.6065C151.389 24.5256 151.538 24.4105 151.64 24.2614C151.747 24.1122 151.8 23.9354 151.8 23.7308C151.8 23.4283 151.679 23.1918 151.436 23.0213C151.193 22.8509 150.86 22.7656 150.438 22.7656H148.789V24.7216ZM156.623 30.5V20.6818H159.346V24.4915H160.113L162.785 20.6818H165.981L162.51 25.5526L166.019 30.5H162.785L160.362 27.0163H159.346V30.5H156.623ZM169.009 34.1818C168.664 34.1818 168.34 34.1541 168.037 34.0987C167.739 34.0476 167.492 33.9815 167.296 33.9006L167.91 31.8679C168.229 31.9659 168.517 32.0192 168.772 32.0277C169.032 32.0362 169.256 31.9766 169.444 31.8487C169.635 31.7209 169.791 31.5036 169.91 31.1967L170.07 30.7812L166.548 20.6818H169.412L171.444 27.892H171.547L173.598 20.6818H176.481L172.665 31.5611C172.482 32.0895 172.233 32.5497 171.917 32.9418C171.606 33.3381 171.212 33.6428 170.735 33.8558C170.258 34.0732 169.682 34.1818 169.009 34.1818Z" fill="white"/>
</svg>
