<svg width="411" height="42" viewBox="0 0 411 42" fill="none" xmlns="http://www.w3.org/2000/svg">
<path d="M12.6927 34.7616C10.2533 34.7616 8.08067 34.3423 6.17489 33.5038C4.28001 32.6543 2.78261 31.4891 1.68271 30.008C0.593691 28.5161 0.0328481 26.7954 0.000177681 24.8461H7.12234C7.1659 25.6629 7.43271 26.3816 7.92276 27.0024C8.42371 27.6122 9.08801 28.0859 9.91566 28.4235C10.7433 28.7611 11.6744 28.9299 12.709 28.9299C13.7871 28.9299 14.74 28.7393 15.5677 28.3582C16.3953 27.977 17.0433 27.4488 17.5115 26.7737C17.9798 26.0985 18.214 25.3198 18.214 24.4377C18.214 23.5447 17.9635 22.7552 17.4625 22.0691C16.9725 21.3721 16.2646 20.8276 15.339 20.4356C14.4242 20.0435 13.3352 19.8475 12.0719 19.8475H8.95188V14.6529H12.0719C13.1391 14.6529 14.0811 14.4678 14.8979 14.0975C15.7256 13.7273 16.3681 13.2154 16.8255 12.562C17.2828 11.8977 17.5115 11.1245 17.5115 10.2424C17.5115 9.40387 17.3101 8.66878 16.9071 8.03715C16.5151 7.39463 15.9597 6.89369 15.2409 6.53431C14.5331 6.17494 13.7054 5.99525 12.758 5.99525C11.7997 5.99525 10.923 6.16949 10.128 6.51798C9.33304 6.85557 8.69596 7.34018 8.2168 7.97181C7.73763 8.60344 7.48171 9.34397 7.44904 10.1934H0.669922C0.702592 8.26585 1.25255 6.56698 2.31978 5.09681C3.38702 3.62664 4.82452 2.47773 6.63228 1.65008C8.45094 0.811537 10.5037 0.392266 12.7907 0.392266C15.0994 0.392266 17.1195 0.811537 18.851 1.65008C20.5826 2.48862 21.9275 3.6212 22.8858 5.04781C23.8551 6.46353 24.3342 8.05349 24.3233 9.81769C24.3342 11.6908 23.7516 13.2535 22.5755 14.5059C21.4102 15.7583 19.891 16.5533 18.0179 16.8908V17.1522C20.4791 17.468 22.3522 18.3229 23.6373 19.7168C24.9332 21.0999 25.5757 22.8314 25.5648 24.9114C25.5757 26.8172 25.0257 28.5106 23.915 29.9917C22.815 31.4728 21.2959 32.638 19.3574 33.4874C17.419 34.3369 15.1974 34.7616 12.6927 34.7616ZM37.8693 34.7779C36.2685 34.7779 34.8419 34.5002 33.5895 33.9448C32.3371 33.3785 31.3461 32.5454 30.6165 31.4455C29.8977 30.3347 29.5384 28.9517 29.5384 27.2964C29.5384 25.9024 29.7943 24.7318 30.3061 23.7843C30.8179 22.8369 31.5149 22.0746 32.397 21.4974C33.2791 20.9202 34.281 20.4846 35.4027 20.1906C36.5353 19.8965 37.7223 19.6896 38.9638 19.5698C40.4231 19.4174 41.5992 19.2758 42.4922 19.1451C43.3852 19.0035 44.0331 18.7966 44.4361 18.5244C44.839 18.2521 45.0405 17.8492 45.0405 17.3156V17.2176C45.0405 16.183 44.7138 15.3826 44.0604 14.8163C43.4179 14.25 42.5031 13.9668 41.3161 13.9668C40.0637 13.9668 39.0672 14.2445 38.3267 14.7999C37.5862 15.3444 37.0961 16.0305 36.8565 16.8582L30.4205 16.3354C30.7472 14.8108 31.3897 13.4931 32.348 12.3823C33.3063 11.2606 34.5424 10.4003 36.0561 9.80136C37.5807 9.19151 39.3449 8.88659 41.3487 8.88659C42.7427 8.88659 44.0767 9.04994 45.3509 9.37664C46.6359 9.70335 47.7739 10.2097 48.7649 10.8958C49.7668 11.5819 50.5563 12.464 51.1335 13.5421C51.7107 14.6094 51.9993 15.889 51.9993 17.3809V34.3042H45.3999V30.8248H45.2038C44.8009 31.6089 44.2618 32.3004 43.5866 32.8994C42.9115 33.4874 42.1001 33.9503 41.1527 34.2879C40.2053 34.6146 39.1108 34.7779 37.8693 34.7779ZM39.8622 29.9754C40.8859 29.9754 41.7898 29.7739 42.5739 29.371C43.358 28.9571 43.9732 28.4017 44.4197 27.7048C44.8662 27.0078 45.0895 26.2183 45.0895 25.3362V22.6735C44.8717 22.8151 44.5722 22.9458 44.1911 23.0656C43.8208 23.1745 43.4015 23.2779 42.9332 23.3759C42.465 23.4631 41.9967 23.5447 41.5284 23.621C41.0601 23.6863 40.6354 23.7462 40.2543 23.8006C39.4375 23.9204 38.7242 24.111 38.1143 24.3724C37.5045 24.6337 37.0308 24.9877 36.6932 25.4342C36.3556 25.8698 36.1868 26.4143 36.1868 27.0677C36.1868 28.0151 36.5298 28.7393 37.2159 29.2403C37.9129 29.7303 38.795 29.9754 39.8622 29.9754ZM64.0465 25.1238L73.0799 9.21329H79.9407V34.3042H73.3086V18.3447L64.3079 34.3042H57.3981V9.21329H64.0465V25.1238ZM71.8874 0.457606H76.739C76.7281 2.43961 75.993 4.03502 74.5337 5.24383C73.0853 6.45264 71.1251 7.05704 68.6531 7.05704C66.1701 7.05704 64.2044 6.45264 62.756 5.24383C61.3076 4.03502 60.5835 2.43961 60.5835 0.457606H65.4023C65.3915 1.20903 65.631 1.88422 66.1211 2.48318C66.622 3.08213 67.466 3.38161 68.6531 3.38161C69.8074 3.38161 70.6351 3.08758 71.136 2.49951C71.637 1.91144 71.8874 1.23081 71.8874 0.457606ZM100.352 26.6103L107.147 9.21329H112.44L102.655 34.3042H98.032L88.4759 9.21329H93.7521L100.352 26.6103ZM92.1676 9.21329V34.3042H85.5192V9.21329H92.1676ZM108.879 34.3042V9.21329H115.445V34.3042H108.879ZM129.514 41.6551V28.7829H131.442C131.997 28.4344 132.443 27.879 132.781 27.1167C133.13 26.3544 133.413 25.456 133.631 24.4214C133.859 23.3868 134.033 22.2706 134.153 21.0727C134.284 19.8639 134.398 18.6442 134.496 17.4136L135.15 9.21329H154.393V28.7829H158.28V41.6551H151.648V34.3042H136.309V41.6551H129.514ZM138.368 28.7829H147.826V14.5712H141.063L140.802 17.4136C140.617 20.0926 140.35 22.3686 140.001 24.2417C139.653 26.1039 139.108 27.6176 138.368 28.7829ZM160.865 34.3042L160.833 28.7829H161.666C162.254 28.7829 162.76 28.6413 163.185 28.3582C163.621 28.0641 163.98 27.5904 164.263 26.937C164.546 26.2836 164.77 25.4178 164.933 24.3397C165.096 23.2507 165.205 21.9112 165.26 20.3212L165.668 9.21329H184.748V34.3042H178.115V14.6856H171.924L171.532 22.3468C171.434 24.4486 171.178 26.2564 170.765 27.7701C170.362 29.2838 169.801 30.5253 169.082 31.4945C168.363 32.4529 167.498 33.1607 166.485 33.6181C165.472 34.0755 164.296 34.3042 162.956 34.3042H160.865ZM204.844 34.3042V14.6693H200.139C198.865 14.6693 197.896 14.9633 197.232 15.5514C196.567 16.1394 196.241 16.8364 196.252 17.6423C196.241 18.459 196.557 19.1506 197.199 19.7168C197.852 20.2722 198.811 20.5499 200.074 20.5499H207.164V25.2545H200.074C197.929 25.2545 196.072 24.9278 194.504 24.2744C192.936 23.621 191.727 22.7116 190.877 21.5464C190.028 20.3703 189.609 19.0035 189.619 17.4462C189.609 15.8127 190.028 14.3807 190.877 13.1501C191.727 11.9086 192.941 10.9448 194.52 10.2587C196.11 9.56177 197.983 9.21329 200.139 9.21329H211.329V34.3042H204.844ZM188.901 34.3042L195.876 21.236H202.524L195.566 34.3042H188.901ZM248.243 0.000219703L250.366 4.54141C249.658 5.12948 248.874 5.56509 248.014 5.84823C247.154 6.12049 246.124 6.30017 244.926 6.38729C243.739 6.47442 242.291 6.53431 240.581 6.56698C238.643 6.58876 237.064 6.89913 235.844 7.49809C234.624 8.09705 233.699 9.03905 233.067 10.3241C232.435 11.5982 232.022 13.2644 231.826 15.3227H232.071C232.822 13.7872 233.878 12.6001 235.24 11.7616C236.612 10.923 238.305 10.5038 240.32 10.5038C242.454 10.5038 244.322 10.972 245.923 11.9086C247.535 12.8452 248.787 14.1901 249.68 15.9434C250.573 17.6967 251.02 19.7985 251.02 22.2488C251.02 24.7971 250.519 27.0132 249.517 28.8972C248.526 30.7703 247.115 32.2242 245.286 33.2587C243.456 34.2824 241.278 34.7943 238.752 34.7943C236.214 34.7943 234.025 34.2606 232.185 33.1934C230.355 32.1262 228.94 30.5525 227.938 28.4725C226.947 26.3925 226.451 23.8333 226.451 20.795V18.7367C226.451 12.6927 227.627 8.2114 229.98 5.29284C232.332 2.37427 235.79 0.893213 240.353 0.849653C241.594 0.827872 242.716 0.822427 243.718 0.833317C244.72 0.844208 245.596 0.795202 246.348 0.686301C247.11 0.5774 247.742 0.348706 248.243 0.000219703ZM238.784 29.4036C239.852 29.4036 240.766 29.1259 241.529 28.5705C242.302 28.0151 242.895 27.2202 243.309 26.1856C243.734 25.151 243.946 23.915 243.946 22.4775C243.946 21.0509 243.734 19.8421 243.309 18.8511C242.895 17.8492 242.302 17.0869 241.529 16.5641C240.756 16.0414 239.83 15.7801 238.752 15.7801C237.946 15.7801 237.222 15.9271 236.579 16.2211C235.937 16.5151 235.387 16.9507 234.929 17.5279C234.483 18.0942 234.134 18.7966 233.884 19.6352C233.644 20.4628 233.525 21.4103 233.525 22.4775C233.525 24.6229 233.987 26.3163 234.913 27.5578C235.85 28.7883 237.14 29.4036 238.784 29.4036ZM262.287 25.1238L271.32 9.21329H278.181V34.3042H271.549V18.3447L262.548 34.3042H255.638V9.21329H262.287V25.1238ZM282.469 27.1984H289.215C289.248 28.026 289.618 28.6794 290.326 29.1586C291.034 29.6378 291.949 29.8774 293.07 29.8774C294.203 29.8774 295.156 29.616 295.929 29.0933C296.702 28.5596 297.089 27.7973 297.089 26.8063C297.089 26.1965 296.936 25.6683 296.632 25.2218C296.327 24.7644 295.902 24.4051 295.357 24.1437C294.813 23.8823 294.181 23.7516 293.463 23.7516H289.852V19.1941H293.463C294.541 19.1941 295.368 18.9436 295.945 18.4427C296.534 17.9417 296.828 17.3156 296.828 16.5641C296.828 15.7147 296.523 15.0341 295.913 14.5222C295.314 13.9995 294.503 13.7381 293.479 13.7381C292.444 13.7381 291.584 13.9723 290.898 14.4406C290.223 14.8979 289.874 15.4969 289.852 16.2374H283.139C283.16 14.7346 283.612 13.4332 284.494 12.3333C285.387 11.2334 286.585 10.384 288.088 9.78502C289.602 9.18606 291.295 8.88659 293.169 8.88659C295.216 8.88659 296.98 9.17517 298.461 9.75235C299.953 10.3186 301.097 11.13 301.892 12.1863C302.697 13.2426 303.1 14.5005 303.1 15.9597C303.1 17.2883 302.665 18.3991 301.794 19.2921C300.922 20.1851 299.703 20.8222 298.134 21.2033V21.4647C299.169 21.5301 300.106 21.8077 300.944 22.2978C301.783 22.7879 302.452 23.4631 302.953 24.3234C303.454 25.1728 303.705 26.1801 303.705 27.3454C303.705 28.9027 303.247 30.2367 302.333 31.3475C301.429 32.4583 300.176 33.3132 298.575 33.9122C296.986 34.5002 295.161 34.7943 293.103 34.7943C291.099 34.7943 289.302 34.5057 287.713 33.9285C286.133 33.3404 284.876 32.4801 283.939 31.3475C283.013 30.2149 282.523 28.8319 282.469 27.1984ZM325.435 18.9818V24.4541H312.334V18.9818H325.435ZM314.621 9.21329V34.3042H307.972V9.21329H314.621ZM329.796 9.21329V34.3042H323.197V9.21329H329.796ZM346.63 34.7943C344.049 34.7943 341.827 34.2715 339.965 33.2261C338.114 32.1697 336.687 30.6778 335.685 28.7502C334.683 26.8118 334.182 24.5194 334.182 21.8731C334.182 19.2921 334.683 17.027 335.685 15.0776C336.687 13.1283 338.097 11.6091 339.916 10.5201C341.745 9.43109 343.891 8.88659 346.352 8.88659C348.007 8.88659 349.548 9.15339 350.975 9.68701C352.412 10.2097 353.665 10.9993 354.732 12.0556C355.81 13.112 356.649 14.4406 357.248 16.0414C357.846 17.6314 358.146 19.4936 358.146 21.6281V23.5393H336.959V19.2268H351.596C351.596 18.2249 351.378 17.3373 350.942 16.5641C350.507 15.7909 349.902 15.1865 349.129 14.7509C348.367 14.3044 347.479 14.0812 346.466 14.0812C345.41 14.0812 344.473 14.3262 343.657 14.8163C342.851 15.2954 342.219 15.9434 341.762 16.7602C341.304 17.566 341.07 18.4645 341.059 19.4555V23.5556C341.059 24.7971 341.288 25.8698 341.745 26.7737C342.214 27.6775 342.873 28.3745 343.722 28.8646C344.571 29.3546 345.579 29.5997 346.744 29.5997C347.517 29.5997 348.225 29.4908 348.868 29.2729C349.51 29.0551 350.06 28.7284 350.517 28.2928C350.975 27.8572 351.323 27.3236 351.563 26.692L357.999 27.1167C357.672 28.6631 357.002 30.0135 355.99 31.1678C354.988 32.3113 353.692 33.2043 352.102 33.8468C350.523 34.4784 348.699 34.7943 346.63 34.7943ZM374.024 34.7943C371.454 34.7943 369.243 34.2497 367.392 33.1607C365.551 32.0608 364.136 30.5362 363.145 28.5869C362.164 26.6375 361.674 24.3942 361.674 21.8568C361.674 19.2867 362.17 17.0324 363.161 15.094C364.163 13.1446 365.584 11.6255 367.424 10.5364C369.265 9.43654 371.454 8.88659 373.991 8.88659C376.18 8.88659 378.097 9.28408 379.741 10.0791C381.386 10.874 382.687 11.9903 383.645 13.4278C384.604 14.8653 385.132 16.5533 385.23 18.4917H378.663C378.478 17.2393 377.988 16.232 377.193 15.4697C376.409 14.6965 375.38 14.3099 374.105 14.3099C373.027 14.3099 372.085 14.6039 371.279 15.192C370.484 15.7692 369.864 16.6131 369.417 17.7239C368.971 18.8347 368.748 20.1797 368.748 21.7587C368.748 23.3596 368.965 24.7209 369.401 25.8426C369.847 26.9642 370.474 27.8191 371.279 28.4072C372.085 28.9953 373.027 29.2893 374.105 29.2893C374.9 29.2893 375.614 29.1259 376.245 28.7992C376.888 28.4725 377.416 27.9988 377.83 27.3781C378.255 26.7464 378.532 25.9896 378.663 25.1075H385.23C385.121 27.0241 384.598 28.7121 383.662 30.1714C382.736 31.6198 381.456 32.7524 379.823 33.5691C378.189 34.3859 376.256 34.7943 374.024 34.7943ZM396.84 34.7779C395.239 34.7779 393.813 34.5002 392.56 33.9448C391.308 33.3785 390.317 32.5454 389.587 31.4455C388.868 30.3347 388.509 28.9517 388.509 27.2964C388.509 25.9024 388.765 24.7318 389.277 23.7843C389.789 22.8369 390.486 22.0746 391.368 21.4974C392.25 20.9202 393.252 20.4846 394.373 20.1906C395.506 19.8965 396.693 19.6896 397.934 19.5698C399.394 19.4174 400.57 19.2758 401.463 19.1451C402.356 19.0035 403.004 18.7966 403.407 18.5244C403.81 18.2521 404.011 17.8492 404.011 17.3156V17.2176C404.011 16.183 403.684 15.3826 403.031 14.8163C402.389 14.25 401.474 13.9668 400.287 13.9668C399.034 13.9668 398.038 14.2445 397.297 14.7999C396.557 15.3444 396.067 16.0305 395.827 16.8582L389.391 16.3354C389.718 14.8108 390.36 13.4931 391.319 12.3823C392.277 11.2606 393.513 10.4003 395.027 9.80136C396.551 9.19151 398.316 8.88659 400.319 8.88659C401.713 8.88659 403.047 9.04994 404.322 9.37664C405.607 9.70335 406.745 10.2097 407.736 10.8958C408.738 11.5819 409.527 12.464 410.104 13.5421C410.681 14.6094 410.97 15.889 410.97 17.3809V34.3042H404.371V30.8248H404.175C403.772 31.6089 403.233 32.3004 402.557 32.8994C401.882 33.4874 401.071 33.9503 400.123 34.2879C399.176 34.6146 398.081 34.7779 396.84 34.7779ZM398.833 29.9754C399.857 29.9754 400.76 29.7739 401.545 29.371C402.329 28.9571 402.944 28.4017 403.39 27.7048C403.837 27.0078 404.06 26.2183 404.06 25.3362V22.6735C403.842 22.8151 403.543 22.9458 403.162 23.0656C402.791 23.1745 402.372 23.2779 401.904 23.3759C401.436 23.4631 400.967 23.5447 400.499 23.621C400.031 23.6863 399.606 23.7462 399.225 23.8006C398.408 23.9204 397.695 24.111 397.085 24.3724C396.475 24.6337 396.001 24.9877 395.664 25.4342C395.326 25.8698 395.157 26.4143 395.157 27.0677C395.157 28.0151 395.501 28.7393 396.187 29.2403C396.884 29.7303 397.766 29.9754 398.833 29.9754Z" fill="black"/>
</svg>
