<svg width="144" height="38" viewBox="0 0 144 38" fill="none" xmlns="http://www.w3.org/2000/svg">
<path fill-rule="evenodd" clip-rule="evenodd" d="M20.5006 33.7433L19.6235 33.2463L3.88477 24.4428L9.46285 21.2402L15.6558 24.7588L15.729 30.9485L20.619 28.1624L25.5529 30.9916L20.5006 33.7433Z" fill="url(#paint0_linear_12243_996)" stroke="url(#paint1_linear_12243_996)" stroke-width="1.2" stroke-linecap="round" stroke-linejoin="round"/>
<path fill-rule="evenodd" clip-rule="evenodd" d="M3.88086 24.4562L3.94204 11.1444L15.5256 4.64355L15.6545 10.7422L9.4762 14.2464L9.44665 21.2057L3.88086 24.4562ZM15.6835 31.0346L15.6545 24.7589L21.7451 21.3409L21.7743 14.2751L27.2353 11.1587L27.2792 24.4429L25.7712 25.3764L20.7348 28.0763L15.6835 31.0346Z" fill="url(#paint2_linear_12243_996)" stroke="url(#paint3_linear_12243_996)" stroke-width="1.2" stroke-linecap="round" stroke-linejoin="round"/>
<path fill-rule="evenodd" clip-rule="evenodd" d="M21.7305 14.2403L15.6438 10.7963L15.5254 4.64355L27.2491 11.1446L21.7305 14.2403Z" fill="url(#paint4_linear_12243_996)" stroke="url(#paint5_linear_12243_996)" stroke-width="1.2" stroke-linecap="round" stroke-linejoin="round"/>
<path d="M39.194 18.07H45.242V20.41H39.194V18.07ZM39.41 25H36.494V12.4H46.016V14.74H39.41V25ZM47.6163 25V15.316H50.2983V18.052L49.9203 17.26C50.2083 16.576 50.6703 16.06 51.3063 15.712C51.9423 15.352 52.7163 15.172 53.6283 15.172V17.764C53.5083 17.752 53.4003 17.746 53.3043 17.746C53.2083 17.734 53.1063 17.728 52.9983 17.728C52.2303 17.728 51.6063 17.95 51.1263 18.394C50.6583 18.826 50.4243 19.504 50.4243 20.428V25H47.6163ZM60.0336 25.144C58.9296 25.144 57.9576 24.928 57.1176 24.496C56.2896 24.064 55.6476 23.476 55.1916 22.732C54.7356 21.976 54.5076 21.118 54.5076 20.158C54.5076 19.186 54.7296 18.328 55.1736 17.584C55.6296 16.828 56.2476 16.24 57.0276 15.82C57.8076 15.388 58.6896 15.172 59.6736 15.172C60.6216 15.172 61.4736 15.376 62.2296 15.784C62.9976 16.18 63.6036 16.756 64.0476 17.512C64.4916 18.256 64.7136 19.15 64.7136 20.194C64.7136 20.302 64.7076 20.428 64.6956 20.572C64.6836 20.704 64.6716 20.83 64.6596 20.95H56.7936V19.312H63.1836L62.1036 19.798C62.1036 19.294 62.0016 18.856 61.7976 18.484C61.5936 18.112 61.3116 17.824 60.9516 17.62C60.5916 17.404 60.1716 17.296 59.6916 17.296C59.2116 17.296 58.7856 17.404 58.4136 17.62C58.0536 17.824 57.7716 18.118 57.5676 18.502C57.3636 18.874 57.2616 19.318 57.2616 19.834V20.266C57.2616 20.794 57.3756 21.262 57.6036 21.67C57.8436 22.066 58.1736 22.372 58.5936 22.588C59.0256 22.792 59.5296 22.894 60.1056 22.894C60.6216 22.894 61.0716 22.816 61.4556 22.66C61.8516 22.504 62.2116 22.27 62.5356 21.958L64.0296 23.578C63.5856 24.082 63.0276 24.472 62.3556 24.748C61.6836 25.012 60.9096 25.144 60.0336 25.144ZM71.3891 25.144C70.2851 25.144 69.3131 24.928 68.4731 24.496C67.6451 24.064 67.0031 23.476 66.5471 22.732C66.0911 21.976 65.8631 21.118 65.8631 20.158C65.8631 19.186 66.0851 18.328 66.5291 17.584C66.9851 16.828 67.6031 16.24 68.3831 15.82C69.1631 15.388 70.0451 15.172 71.0291 15.172C71.9771 15.172 72.8291 15.376 73.5851 15.784C74.3531 16.18 74.9591 16.756 75.4031 17.512C75.8471 18.256 76.0691 19.15 76.0691 20.194C76.0691 20.302 76.0631 20.428 76.0511 20.572C76.0391 20.704 76.0271 20.83 76.0151 20.95H68.1491V19.312H74.5391L73.4591 19.798C73.4591 19.294 73.3571 18.856 73.1531 18.484C72.9491 18.112 72.6671 17.824 72.3071 17.62C71.9471 17.404 71.5271 17.296 71.0471 17.296C70.5671 17.296 70.1411 17.404 69.7691 17.62C69.4091 17.824 69.1271 18.118 68.9231 18.502C68.7191 18.874 68.6171 19.318 68.6171 19.834V20.266C68.6171 20.794 68.7311 21.262 68.9591 21.67C69.1991 22.066 69.5291 22.372 69.9491 22.588C70.3811 22.792 70.8851 22.894 71.4611 22.894C71.9771 22.894 72.4271 22.816 72.8111 22.66C73.2071 22.504 73.5671 22.27 73.8911 21.958L75.3851 23.578C74.9411 24.082 74.3831 24.472 73.7111 24.748C73.0391 25.012 72.2651 25.144 71.3891 25.144ZM84.1666 25.216C83.1946 25.216 82.2886 25.06 81.4486 24.748C80.6206 24.424 79.9006 23.968 79.2886 23.38C78.6766 22.792 78.1966 22.102 77.8486 21.31C77.5126 20.518 77.3446 19.648 77.3446 18.7C77.3446 17.752 77.5126 16.882 77.8486 16.09C78.1966 15.298 78.6766 14.608 79.2886 14.02C79.9126 13.432 80.6386 12.982 81.4666 12.67C82.2946 12.346 83.2006 12.184 84.1846 12.184C85.2766 12.184 86.2606 12.376 87.1366 12.76C88.0246 13.132 88.7686 13.684 89.3686 14.416L87.4966 16.144C87.0646 15.652 86.5846 15.286 86.0566 15.046C85.5286 14.794 84.9526 14.668 84.3286 14.668C83.7406 14.668 83.2006 14.764 82.7086 14.956C82.2166 15.148 81.7906 15.424 81.4306 15.784C81.0706 16.144 80.7886 16.57 80.5846 17.062C80.3926 17.554 80.2966 18.1 80.2966 18.7C80.2966 19.3 80.3926 19.846 80.5846 20.338C80.7886 20.83 81.0706 21.256 81.4306 21.616C81.7906 21.976 82.2166 22.252 82.7086 22.444C83.2006 22.636 83.7406 22.732 84.3286 22.732C84.9526 22.732 85.5286 22.612 86.0566 22.372C86.5846 22.12 87.0646 21.742 87.4966 21.238L89.3686 22.966C88.7686 23.698 88.0246 24.256 87.1366 24.64C86.2606 25.024 85.2706 25.216 84.1666 25.216ZM97.027 25V23.11L96.847 22.696V19.312C96.847 18.712 96.661 18.244 96.289 17.908C95.929 17.572 95.371 17.404 94.615 17.404C94.099 17.404 93.589 17.488 93.085 17.656C92.593 17.812 92.173 18.028 91.825 18.304L90.817 16.342C91.345 15.97 91.981 15.682 92.725 15.478C93.469 15.274 94.225 15.172 94.993 15.172C96.469 15.172 97.615 15.52 98.431 16.216C99.247 16.912 99.655 17.998 99.655 19.474V25H97.027ZM94.075 25.144C93.319 25.144 92.671 25.018 92.131 24.766C91.591 24.502 91.177 24.148 90.889 23.704C90.601 23.26 90.457 22.762 90.457 22.21C90.457 21.634 90.595 21.13 90.871 20.698C91.159 20.266 91.609 19.93 92.221 19.69C92.833 19.438 93.631 19.312 94.615 19.312H97.189V20.95H94.921C94.261 20.95 93.805 21.058 93.553 21.274C93.313 21.49 93.193 21.76 93.193 22.084C93.193 22.444 93.331 22.732 93.607 22.948C93.895 23.152 94.285 23.254 94.777 23.254C95.245 23.254 95.665 23.146 96.037 22.93C96.409 22.702 96.679 22.372 96.847 21.94L97.279 23.236C97.075 23.86 96.703 24.334 96.163 24.658C95.623 24.982 94.927 25.144 94.075 25.144ZM107.92 25.144C107.104 25.144 106.39 24.964 105.778 24.604C105.166 24.244 104.686 23.698 104.338 22.966C104.002 22.222 103.834 21.286 103.834 20.158C103.834 19.018 103.996 18.082 104.32 17.35C104.644 16.618 105.112 16.072 105.724 15.712C106.336 15.352 107.068 15.172 107.92 15.172C108.832 15.172 109.648 15.382 110.368 15.802C111.1 16.21 111.676 16.786 112.096 17.53C112.528 18.274 112.744 19.15 112.744 20.158C112.744 21.178 112.528 22.06 112.096 22.804C111.676 23.548 111.1 24.124 110.368 24.532C109.648 24.94 108.832 25.144 107.92 25.144ZM102.196 28.492V15.316H104.878V17.296L104.824 20.176L105.004 23.038V28.492H102.196ZM107.434 22.84C107.902 22.84 108.316 22.732 108.676 22.516C109.048 22.3 109.342 21.994 109.558 21.598C109.786 21.19 109.9 20.71 109.9 20.158C109.9 19.594 109.786 19.114 109.558 18.718C109.342 18.322 109.048 18.016 108.676 17.8C108.316 17.584 107.902 17.476 107.434 17.476C106.966 17.476 106.546 17.584 106.174 17.8C105.802 18.016 105.508 18.322 105.292 18.718C105.076 19.114 104.968 19.594 104.968 20.158C104.968 20.71 105.076 21.19 105.292 21.598C105.508 21.994 105.802 22.3 106.174 22.516C106.546 22.732 106.966 22.84 107.434 22.84ZM114.624 25V15.316H117.432V25H114.624ZM116.028 13.966C115.512 13.966 115.092 13.816 114.768 13.516C114.444 13.216 114.282 12.844 114.282 12.4C114.282 11.956 114.444 11.584 114.768 11.284C115.092 10.984 115.512 10.834 116.028 10.834C116.544 10.834 116.964 10.978 117.288 11.266C117.612 11.542 117.774 11.902 117.774 12.346C117.774 12.814 117.612 13.204 117.288 13.516C116.976 13.816 116.556 13.966 116.028 13.966ZM123.998 25.144C122.858 25.144 121.97 24.856 121.334 24.28C120.698 23.692 120.38 22.822 120.38 21.67V13.174H123.188V21.634C123.188 22.042 123.296 22.36 123.512 22.588C123.728 22.804 124.022 22.912 124.394 22.912C124.838 22.912 125.216 22.792 125.528 22.552L126.284 24.532C125.996 24.736 125.648 24.892 125.24 25C124.844 25.096 124.43 25.144 123.998 25.144ZM118.886 17.692V15.532H125.6V17.692H118.886ZM133.8 25V23.11L133.62 22.696V19.312C133.62 18.712 133.434 18.244 133.062 17.908C132.702 17.572 132.144 17.404 131.388 17.404C130.872 17.404 130.362 17.488 129.858 17.656C129.366 17.812 128.946 18.028 128.598 18.304L127.59 16.342C128.118 15.97 128.754 15.682 129.498 15.478C130.242 15.274 130.998 15.172 131.766 15.172C133.242 15.172 134.388 15.52 135.204 16.216C136.02 16.912 136.428 17.998 136.428 19.474V25H133.8ZM130.848 25.144C130.092 25.144 129.444 25.018 128.904 24.766C128.364 24.502 127.95 24.148 127.662 23.704C127.374 23.26 127.23 22.762 127.23 22.21C127.23 21.634 127.368 21.13 127.644 20.698C127.932 20.266 128.382 19.93 128.994 19.69C129.606 19.438 130.404 19.312 131.388 19.312H133.962V20.95H131.694C131.034 20.95 130.578 21.058 130.326 21.274C130.086 21.49 129.966 21.76 129.966 22.084C129.966 22.444 130.104 22.732 130.38 22.948C130.668 23.152 131.058 23.254 131.55 23.254C132.018 23.254 132.438 23.146 132.81 22.93C133.182 22.702 133.452 22.372 133.62 21.94L134.052 23.236C133.848 23.86 133.476 24.334 132.936 24.658C132.396 24.982 131.7 25.144 130.848 25.144ZM138.97 25V11.644H141.778V25H138.97Z" fill="black"/>
<defs>
<linearGradient id="paint0_linear_12243_996" x1="11.9642" y1="41.9254" x2="17.2437" y2="12.9267" gradientUnits="userSpaceOnUse">
<stop stop-color="#103585"/>
<stop offset="0.5" stop-color="#11398A"/>
<stop offset="1" stop-color="#133C90"/>
</linearGradient>
<linearGradient id="paint1_linear_12243_996" x1="11.9642" y1="41.9254" x2="17.2437" y2="12.9267" gradientUnits="userSpaceOnUse">
<stop stop-color="#103585"/>
<stop offset="0.5" stop-color="#11398A"/>
<stop offset="1" stop-color="#133C90"/>
</linearGradient>
<linearGradient id="paint2_linear_12243_996" x1="5.42607" y1="36.1191" x2="25.1669" y2="-0.965568" gradientUnits="userSpaceOnUse">
<stop stop-color="#184EBC"/>
<stop offset="0.5" stop-color="#1951C3"/>
<stop offset="1" stop-color="#1B56D2"/>
</linearGradient>
<linearGradient id="paint3_linear_12243_996" x1="5.42607" y1="36.1191" x2="25.1669" y2="-0.965568" gradientUnits="userSpaceOnUse">
<stop stop-color="#184EBC"/>
<stop offset="0.5" stop-color="#1951C3"/>
<stop offset="1" stop-color="#1B56D2"/>
</linearGradient>
<linearGradient id="paint4_linear_12243_996" x1="23.4014" y1="18.0533" x2="19.4007" y2="0.758026" gradientUnits="userSpaceOnUse">
<stop stop-color="#2E7AEC"/>
<stop offset="0.5" stop-color="#317CED"/>
<stop offset="1" stop-color="#307CED"/>
</linearGradient>
<linearGradient id="paint5_linear_12243_996" x1="23.4014" y1="18.0533" x2="19.4007" y2="0.758026" gradientUnits="userSpaceOnUse">
<stop stop-color="#2E7AEC"/>
<stop offset="0.5" stop-color="#317CED"/>
<stop offset="1" stop-color="#307CED"/>
</linearGradient>
</defs>
</svg>
