<svg width="150" height="19" viewBox="0 0 150 19" fill="none" xmlns="http://www.w3.org/2000/svg">
<path d="M0.000355154 14.9717V0.426225H2.19496V6.74725H9.44638V0.426225H11.6481V14.9717H9.44638V8.62935H2.19496V14.9717H0.000355154ZM17.8484 15.2132C17.1571 15.2132 16.5321 15.0853 15.9734 14.8296C15.4147 14.5692 14.9719 14.1928 14.6452 13.7004C14.3233 13.2079 14.1623 12.6043 14.1623 11.8893C14.1623 11.2738 14.2807 10.7671 14.5174 10.3694C14.7541 9.97168 15.0737 9.65681 15.4762 9.4248C15.8787 9.1928 16.3285 9.01761 16.8256 8.89924C17.3228 8.78087 17.8294 8.6909 18.3455 8.62935C18.9989 8.55359 19.5292 8.49204 19.9364 8.44469C20.3436 8.39261 20.6396 8.30975 20.8242 8.19611C21.0089 8.08247 21.1012 7.89782 21.1012 7.64213V7.59242C21.1012 6.97215 20.926 6.49157 20.5756 6.15066C20.23 5.80975 19.7139 5.63929 19.0273 5.63929C18.3124 5.63929 17.7489 5.79791 17.337 6.11515C16.9298 6.42765 16.6481 6.77566 16.4918 7.15918L14.4961 6.70463C14.7328 6.04176 15.0785 5.50672 15.533 5.09952C15.9923 4.68759 16.5202 4.38929 17.1168 4.20463C17.7134 4.01524 18.3408 3.92054 18.9989 3.92054C19.4345 3.92054 19.8962 3.97263 20.3839 4.07679C20.8763 4.17623 21.3356 4.36088 21.7617 4.63077C22.1926 4.90066 22.5453 5.28655 22.82 5.78844C23.0946 6.2856 23.2319 6.93191 23.2319 7.72736V14.9717H21.158V13.4802H21.0728C20.9355 13.7548 20.7295 14.0247 20.4549 14.2899C20.1803 14.555 19.8275 14.7752 19.3967 14.9504C18.9658 15.1256 18.4497 15.2132 17.8484 15.2132ZM18.31 13.5086C18.8971 13.5086 19.399 13.3926 19.8157 13.1606C20.2371 12.9286 20.5567 12.6256 20.7745 12.2515C20.997 11.8727 21.1083 11.4679 21.1083 11.037V9.63077C21.0326 9.70653 20.8858 9.77755 20.668 9.84384C20.4549 9.90539 20.2111 9.95984 19.9364 10.0072C19.6618 10.0498 19.3943 10.0901 19.1339 10.1279C18.8735 10.1611 18.6557 10.1895 18.4805 10.2132C18.0685 10.2652 17.6921 10.3528 17.3512 10.4759C17.015 10.599 16.7451 10.7766 16.5415 11.0086C16.3427 11.2359 16.2433 11.5389 16.2433 11.9177C16.2433 12.4433 16.4374 12.841 16.8256 13.1109C17.2139 13.376 17.7087 13.5086 18.31 13.5086ZM30.494 14.9717L30.4869 13.1322H30.8775C31.1805 13.1322 31.4338 13.0683 31.6374 12.9404C31.8458 12.8079 32.0162 12.5853 32.1488 12.2728C32.2814 11.9603 32.3832 11.5294 32.4542 10.9802C32.5252 10.4262 32.5773 9.7302 32.6104 8.89213L32.8022 4.06259H40.4158V14.9717H38.3349V5.89497H34.7695L34.5991 9.60236C34.5565 10.502 34.4641 11.288 34.3221 11.9603C34.1848 12.6327 33.9835 13.1937 33.7184 13.6436C33.4532 14.0886 33.1123 14.4224 32.6957 14.645C32.279 14.8628 31.7724 14.9717 31.1758 14.9717H30.494ZM48.7379 8.67907V10.5257H42.9212V8.67907H48.7379ZM44.647 4.06259V14.9717H42.5234V4.06259H44.647ZM52.0618 15.1919C51.0485 15.1919 50.1631 14.9551 49.4055 14.4816C48.648 14.0081 48.0608 13.35 47.6442 12.5072C47.2275 11.6597 47.0192 10.6772 47.0192 9.55975C47.0192 8.43285 47.2275 7.44801 47.6442 6.6052C48.0608 5.75766 48.648 5.09952 49.4055 4.63077C50.1631 4.15729 51.0485 3.92054 52.0618 3.92054C53.0798 3.92054 53.9652 4.15729 54.718 4.63077C55.4756 5.09952 56.0627 5.75766 56.4794 6.6052C56.9008 7.44801 57.1115 8.43285 57.1115 9.55975C57.1115 10.6772 56.9008 11.6597 56.4794 12.5072C56.0627 13.35 55.4756 14.0081 54.718 14.4816C53.9652 14.9551 53.0798 15.1919 52.0618 15.1919ZM52.0618 13.3737C52.7483 13.3737 53.3094 13.2008 53.745 12.8552C54.1854 12.5048 54.5097 12.0408 54.718 11.4632C54.9264 10.8855 55.0305 10.251 55.0305 9.55975C55.0305 8.86372 54.9264 8.22689 54.718 7.64924C54.5097 7.06685 54.1854 6.60047 53.745 6.25009C53.3094 5.89971 52.7483 5.72452 52.0618 5.72452C51.38 5.72452 50.8189 5.89971 50.3786 6.25009C49.9382 6.60047 49.6139 7.06685 49.4055 7.64924C49.1972 8.22689 49.093 8.86372 49.093 9.55975C49.093 10.251 49.1972 10.8855 49.4055 11.4632C49.6139 12.0408 49.9382 12.5048 50.3786 12.8552C50.8189 13.2008 51.38 13.3737 52.0618 13.3737ZM68.0312 8.84533e-05L68.9119 1.34242C68.5852 1.64071 68.2135 1.85378 67.7969 1.98162C67.3849 2.10473 66.9091 2.18285 66.3693 2.216C65.8295 2.24441 65.2116 2.27045 64.5156 2.29412C63.7296 2.3178 63.0833 2.48825 62.5767 2.80549C62.0701 3.11799 61.6795 3.582 61.4048 4.19753C61.1349 4.80833 60.9598 5.57537 60.8793 6.49867H61.0142C61.3693 5.82158 61.8617 5.31496 62.4915 4.97878C63.1259 4.64261 63.8385 4.47452 64.6293 4.47452C65.5099 4.47452 66.2936 4.67575 66.9801 5.07821C67.6667 5.48068 68.2064 6.07016 68.5994 6.84668C68.9972 7.61846 69.196 8.56306 69.196 9.68049C69.196 10.8121 68.9877 11.7899 68.571 12.6137C68.1591 13.4376 67.5767 14.0744 66.8239 14.5242C66.0758 14.9693 65.1927 15.1919 64.1747 15.1919C63.1567 15.1919 62.2689 14.9622 61.5114 14.5029C60.7585 14.0389 60.1738 13.3524 59.7571 12.4433C59.3452 11.5342 59.1392 10.412 59.1392 9.07679V7.99725C59.1392 5.50198 59.5843 3.62461 60.4744 2.36514C61.3646 1.10568 62.6951 0.459369 64.4659 0.426225C65.0388 0.412021 65.5502 0.409653 66 0.419122C66.4498 0.423857 66.8428 0.402551 67.179 0.355202C67.5199 0.303119 67.804 0.184748 68.0312 8.84533e-05ZM64.1818 13.4092C64.7737 13.4092 65.2827 13.26 65.7088 12.9617C66.1397 12.6587 66.4711 12.2302 66.7031 11.6762C66.9351 11.1222 67.0511 10.4688 67.0511 9.716C67.0511 8.97736 66.9351 8.34999 66.7031 7.8339C66.4711 7.3178 66.1397 6.9248 65.7088 6.65492C65.2779 6.3803 64.7618 6.24299 64.1605 6.24299C63.7154 6.24299 63.3177 6.32111 62.9673 6.47736C62.617 6.62888 62.3163 6.85378 62.0653 7.15208C61.8191 7.45037 61.6274 7.81496 61.4901 8.24583C61.3575 8.67196 61.2865 9.16202 61.277 9.716C61.277 10.8429 61.535 11.7401 62.0511 12.4078C62.572 13.0754 63.2822 13.4092 64.1818 13.4092ZM73.1662 7.81259H76.3338C77.669 7.81259 78.6965 8.14403 79.4162 8.80691C80.1359 9.46979 80.4957 10.3244 80.4957 11.3708C80.4957 12.0526 80.3348 12.6658 80.0128 13.2103C79.6908 13.7548 79.2197 14.1857 78.5994 14.5029C77.9792 14.8154 77.224 14.9717 76.3338 14.9717H71.5682V4.06259H73.6491V13.1393H76.3338C76.9446 13.1393 77.4465 12.9807 77.8395 12.6634C78.2325 12.3415 78.429 11.9319 78.429 11.4347C78.429 10.9092 78.2325 10.4807 77.8395 10.1492C77.4465 9.81306 76.9446 9.64497 76.3338 9.64497H73.1662V7.81259ZM82.044 14.9717V4.06259H84.1676V14.9717H82.044ZM91.7191 15.1919C90.6443 15.1919 89.7186 14.9622 88.9421 14.5029C88.1703 14.0389 87.5737 13.3879 87.1523 12.5498C86.7357 11.707 86.5273 10.7198 86.5273 9.58816C86.5273 8.47073 86.7357 7.48588 87.1523 6.63361C87.5737 5.78134 88.1609 5.11609 88.9137 4.63787C89.6713 4.15965 90.5567 3.92054 91.57 3.92054C92.1855 3.92054 92.7821 4.02234 93.3597 4.22594C93.9374 4.42954 94.4558 4.74914 94.9151 5.18475C95.3744 5.62035 95.7366 6.18617 96.0018 6.88219C96.2669 7.57348 96.3995 8.41391 96.3995 9.4035V10.1563H87.7276V8.56543H94.3185C94.3185 8.00672 94.2049 7.51193 93.9776 7.08105C93.7504 6.64545 93.4308 6.30217 93.0188 6.05122C92.6116 5.80028 92.1334 5.6748 91.5842 5.6748C90.9876 5.6748 90.4667 5.82158 90.0217 6.11515C89.5813 6.40397 89.2404 6.78276 88.9989 7.25151C88.7622 7.71552 88.6438 8.21979 88.6438 8.76429V10.0072C88.6438 10.7364 88.7717 11.3566 89.0273 11.868C89.2878 12.3794 89.65 12.77 90.114 13.0399C90.578 13.305 91.1201 13.4376 91.7404 13.4376C92.1429 13.4376 92.5098 13.3808 92.8413 13.2671C93.1727 13.1488 93.4592 12.9736 93.7006 12.7416C93.9421 12.5096 94.1268 12.2231 94.2546 11.8822L96.2646 12.2444C96.1036 12.8363 95.8147 13.3547 95.3981 13.7998C94.9862 14.2401 94.4677 14.5834 93.8427 14.8296C93.2224 15.0711 92.5146 15.1919 91.7191 15.1919ZM112.948 4.06259V13.2316H114.546V18.4873H112.451V14.9717H104.049V4.06259H106.13V13.1393H110.874V4.06259H112.948ZM121.485 15.1919C120.41 15.1919 119.484 14.9622 118.708 14.5029C117.936 14.0389 117.339 13.3879 116.918 12.5498C116.501 11.707 116.293 10.7198 116.293 9.58816C116.293 8.47073 116.501 7.48588 116.918 6.63361C117.339 5.78134 117.926 5.11609 118.679 4.63787C119.437 4.15965 120.322 3.92054 121.336 3.92054C121.951 3.92054 122.548 4.02234 123.125 4.22594C123.703 4.42954 124.221 4.74914 124.681 5.18475C125.14 5.62035 125.502 6.18617 125.767 6.88219C126.033 7.57348 126.165 8.41391 126.165 9.4035V10.1563H117.493V8.56543H124.084C124.084 8.00672 123.971 7.51193 123.743 7.08105C123.516 6.64545 123.196 6.30217 122.784 6.05122C122.377 5.80028 121.899 5.6748 121.35 5.6748C120.753 5.6748 120.232 5.82158 119.787 6.11515C119.347 6.40397 119.006 6.78276 118.765 7.25151C118.528 7.71552 118.409 8.21979 118.409 8.76429V10.0072C118.409 10.7364 118.537 11.3566 118.793 11.868C119.053 12.3794 119.416 12.77 119.88 13.0399C120.344 13.305 120.886 13.4376 121.506 13.4376C121.908 13.4376 122.275 13.3808 122.607 13.2671C122.938 13.1488 123.225 12.9736 123.466 12.7416C123.708 12.5096 123.892 12.2231 124.02 11.8822L126.03 12.2444C125.869 12.8363 125.58 13.3547 125.164 13.7998C124.752 14.2401 124.233 14.5834 123.608 14.8296C122.988 15.0711 122.28 15.1919 121.485 15.1919ZM127.662 14.9717L127.655 13.1322H128.045C128.348 13.1322 128.602 13.0683 128.805 12.9404C129.014 12.8079 129.184 12.5853 129.317 12.2728C129.449 11.9603 129.551 11.5294 129.622 10.9802C129.693 10.4262 129.745 9.7302 129.778 8.89213L129.97 4.06259H137.584V14.9717H135.503V5.89497H131.938L131.767 9.60236C131.724 10.502 131.632 11.288 131.49 11.9603C131.353 12.6327 131.152 13.1937 130.886 13.6436C130.621 14.0886 130.28 14.4224 129.864 14.645C129.447 14.8628 128.94 14.9717 128.344 14.9717H127.662ZM142.497 11.9958L147.305 4.06259H149.592V14.9717H147.511V7.03134L142.724 14.9717H140.416V4.06259H142.497V11.9958Z" fill="#636775"/>
</svg>
