<svg width="116" height="27" viewBox="0 0 116 27" fill="none" xmlns="http://www.w3.org/2000/svg">
<rect x="0.5" y="0.5" width="115" height="26" rx="13" stroke="#636775" stroke-opacity="0.5"/>
<path d="M20.7754 8.77273V17.5H19.4629V9.89773H15.3549V17.5H14.0424V8.77273H20.7754ZM25.4437 17.6321C24.8301 17.6321 24.2946 17.4915 23.8372 17.2102C23.3798 16.929 23.0247 16.5355 22.7718 16.0298C22.519 15.5241 22.3926 14.9332 22.3926 14.2571C22.3926 13.5781 22.519 12.9844 22.7718 12.4759C23.0247 11.9673 23.3798 11.5724 23.8372 11.2912C24.2946 11.0099 24.8301 10.8693 25.4437 10.8693C26.0574 10.8693 26.5929 11.0099 27.0502 11.2912C27.5076 11.5724 27.8627 11.9673 28.1156 12.4759C28.3684 12.9844 28.4949 13.5781 28.4949 14.2571C28.4949 14.9332 28.3684 15.5241 28.1156 16.0298C27.8627 16.5355 27.5076 16.929 27.0502 17.2102C26.5929 17.4915 26.0574 17.6321 25.4437 17.6321ZM25.448 16.5625C25.8457 16.5625 26.1752 16.4574 26.4366 16.2472C26.698 16.0369 26.8912 15.7571 27.0162 15.4077C27.144 15.0582 27.2079 14.6733 27.2079 14.2528C27.2079 13.8352 27.144 13.4517 27.0162 13.1023C26.8912 12.75 26.698 12.4673 26.4366 12.2543C26.1752 12.0412 25.8457 11.9347 25.448 11.9347C25.0474 11.9347 24.715 12.0412 24.4508 12.2543C24.1895 12.4673 23.9949 12.75 23.867 13.1023C23.742 13.4517 23.6795 13.8352 23.6795 14.2528C23.6795 14.6733 23.742 15.0582 23.867 15.4077C23.9949 15.7571 24.1895 16.0369 24.4508 16.2472C24.715 16.4574 25.0474 16.5625 25.448 16.5625ZM29.2779 19.3878V16.3963H29.8105C29.9469 16.2713 30.062 16.1222 30.1557 15.9489C30.2523 15.7756 30.3333 15.5696 30.3986 15.331C30.4668 15.0923 30.5236 14.8139 30.5691 14.4957C30.6145 14.1747 30.6543 13.8082 30.6884 13.3963L30.8929 10.9545H35.3418V16.3963H36.3475V19.3878H35.1032V17.5H30.5392V19.3878H29.2779ZM31.1742 16.3963H34.0975V12.0455H32.035L31.8986 13.3963C31.8333 14.0838 31.7509 14.6804 31.6515 15.1861C31.552 15.6889 31.3929 16.0923 31.1742 16.3963ZM39.4977 17.6449C39.0829 17.6449 38.7079 17.5682 38.3727 17.4148C38.0375 17.2585 37.7718 17.0327 37.5758 16.7372C37.3826 16.4418 37.286 16.0795 37.286 15.6506C37.286 15.2812 37.3571 14.9773 37.4991 14.7386C37.6412 14.5 37.8329 14.3111 38.0744 14.1719C38.3159 14.0327 38.5858 13.9276 38.8841 13.8565C39.1824 13.7855 39.4863 13.7315 39.796 13.6946C40.188 13.6491 40.5062 13.6122 40.7505 13.5838C40.9949 13.5526 41.1724 13.5028 41.2832 13.4347C41.394 13.3665 41.4494 13.2557 41.4494 13.1023V13.0724C41.4494 12.7003 41.3443 12.4119 41.1341 12.2074C40.9267 12.0028 40.617 11.9006 40.2051 11.9006C39.7761 11.9006 39.438 11.9957 39.1909 12.1861C38.9466 12.3736 38.7775 12.5824 38.6838 12.8125L37.4863 12.5398C37.6284 12.142 37.8358 11.821 38.1085 11.5767C38.3841 11.3295 38.7008 11.1506 39.0588 11.0398C39.4167 10.9261 39.7931 10.8693 40.188 10.8693C40.4494 10.8693 40.7264 10.9006 41.019 10.9631C41.3145 11.0227 41.59 11.1335 41.8457 11.2955C42.1042 11.4574 42.3159 11.6889 42.4806 11.9901C42.6454 12.2884 42.7278 12.6761 42.7278 13.1534V17.5H41.4835V16.6051H41.4324C41.35 16.7699 41.2264 16.9318 41.0616 17.0909C40.8968 17.25 40.6852 17.3821 40.4267 17.4872C40.1681 17.5923 39.8585 17.6449 39.4977 17.6449ZM39.7747 16.6222C40.127 16.6222 40.4281 16.5526 40.6781 16.4134C40.9309 16.2741 41.1227 16.0923 41.2534 15.8679C41.3869 15.6406 41.4537 15.3977 41.4537 15.1392V14.2955C41.4082 14.3409 41.3201 14.3835 41.1895 14.4233C41.0616 14.4602 40.9153 14.4929 40.7505 14.5213C40.5858 14.5469 40.4252 14.571 40.269 14.5938C40.1127 14.6136 39.9821 14.6307 39.877 14.6449C39.6298 14.6761 39.4039 14.7287 39.1994 14.8026C38.9977 14.8764 38.8358 14.983 38.7136 15.1222C38.5943 15.2585 38.5346 15.4403 38.5346 15.6676C38.5346 15.983 38.6511 16.2216 38.8841 16.3835C39.117 16.5426 39.4139 16.6222 39.7747 16.6222ZM49.6792 10.9545V17.5H48.4348V10.9545H49.6792ZM49.138 13.9929V15.0923C48.9419 15.1719 48.7346 15.2429 48.5158 15.3054C48.2971 15.3651 48.0669 15.4119 47.8255 15.446C47.584 15.4801 47.3326 15.4972 47.0712 15.4972C46.2615 15.4972 45.6181 15.2997 45.1408 14.9048C44.6635 14.5071 44.4249 13.8991 44.4249 13.081V10.9418H45.665V13.081C45.665 13.3906 45.7218 13.642 45.8354 13.8352C45.949 14.0284 46.111 14.1705 46.3212 14.2614C46.5314 14.3523 46.7814 14.3977 47.0712 14.3977C47.4547 14.3977 47.8084 14.3622 48.1323 14.2912C48.459 14.2173 48.7942 14.1179 49.138 13.9929ZM53.2789 17.6449C52.8642 17.6449 52.4892 17.5682 52.1539 17.4148C51.8187 17.2585 51.5531 17.0327 51.3571 16.7372C51.1639 16.4418 51.0673 16.0795 51.0673 15.6506C51.0673 15.2812 51.1383 14.9773 51.2804 14.7386C51.4224 14.5 51.6142 14.3111 51.8556 14.1719C52.0971 14.0327 52.367 13.9276 52.6653 13.8565C52.9636 13.7855 53.2676 13.7315 53.5772 13.6946C53.9693 13.6491 54.2875 13.6122 54.5318 13.5838C54.7761 13.5526 54.9537 13.5028 55.0645 13.4347C55.1752 13.3665 55.2306 13.2557 55.2306 13.1023V13.0724C55.2306 12.7003 55.1255 12.4119 54.9153 12.2074C54.7079 12.0028 54.3983 11.9006 53.9863 11.9006C53.5574 11.9006 53.2193 11.9957 52.9721 12.1861C52.7278 12.3736 52.5588 12.5824 52.465 12.8125L51.2676 12.5398C51.4096 12.142 51.617 11.821 51.8897 11.5767C52.1653 11.3295 52.4821 11.1506 52.84 11.0398C53.198 10.9261 53.5744 10.8693 53.9693 10.8693C54.2306 10.8693 54.5076 10.9006 54.8002 10.9631C55.0957 11.0227 55.3713 11.1335 55.627 11.2955C55.8855 11.4574 56.0971 11.6889 56.2619 11.9901C56.4267 12.2884 56.5091 12.6761 56.5091 13.1534V17.5H55.2647V16.6051H55.2136C55.1312 16.7699 55.0076 16.9318 54.8429 17.0909C54.6781 17.25 54.4664 17.3821 54.2079 17.4872C53.9494 17.5923 53.6397 17.6449 53.2789 17.6449ZM53.5559 16.6222C53.9082 16.6222 54.2093 16.5526 54.4593 16.4134C54.7122 16.2741 54.9039 16.0923 55.0346 15.8679C55.1681 15.6406 55.2349 15.3977 55.2349 15.1392V14.2955C55.1895 14.3409 55.1014 14.3835 54.9707 14.4233C54.8429 14.4602 54.6966 14.4929 54.5318 14.5213C54.367 14.5469 54.2065 14.571 54.0502 14.5938C53.894 14.6136 53.7633 14.6307 53.6582 14.6449C53.411 14.6761 53.1852 14.7287 52.9806 14.8026C52.7789 14.8764 52.617 14.983 52.4949 15.1222C52.3755 15.2585 52.3159 15.4403 52.3159 15.6676C52.3159 15.983 52.4324 16.2216 52.6653 16.3835C52.8983 16.5426 53.1951 16.6222 53.5559 16.6222ZM64.139 17.6321C63.5254 17.6321 62.9899 17.4915 62.5325 17.2102C62.0751 16.929 61.72 16.5355 61.4672 16.0298C61.2143 15.5241 61.0879 14.9332 61.0879 14.2571C61.0879 13.5781 61.2143 12.9844 61.4672 12.4759C61.72 11.9673 62.0751 11.5724 62.5325 11.2912C62.9899 11.0099 63.5254 10.8693 64.139 10.8693C64.7527 10.8693 65.2882 11.0099 65.7456 11.2912C66.2029 11.5724 66.5581 11.9673 66.8109 12.4759C67.0637 12.9844 67.1902 13.5781 67.1902 14.2571C67.1902 14.9332 67.0637 15.5241 66.8109 16.0298C66.5581 16.5355 66.2029 16.929 65.7456 17.2102C65.2882 17.4915 64.7527 17.6321 64.139 17.6321ZM64.1433 16.5625C64.541 16.5625 64.8706 16.4574 65.1319 16.2472C65.3933 16.0369 65.5865 15.7571 65.7115 15.4077C65.8393 15.0582 65.9032 14.6733 65.9032 14.2528C65.9032 13.8352 65.8393 13.4517 65.7115 13.1023C65.5865 12.75 65.3933 12.4673 65.1319 12.2543C64.8706 12.0412 64.541 11.9347 64.1433 11.9347C63.7427 11.9347 63.4103 12.0412 63.1461 12.2543C62.8848 12.4673 62.6902 12.75 62.5623 13.1023C62.4373 13.4517 62.3748 13.8352 62.3748 14.2528C62.3748 14.6733 62.4373 15.0582 62.5623 15.4077C62.6902 15.7571 62.8848 16.0369 63.1461 16.2472C63.4103 16.4574 63.7427 16.5625 64.1433 16.5625ZM73.0485 13.6776V14.7812H69.503V13.6776H73.0485ZM69.861 10.9545V17.5H68.6124V10.9545H69.861ZM73.9391 10.9545V17.5H72.6948V10.9545H73.9391ZM75.128 17.5L75.1238 16.3963H75.3581C75.54 16.3963 75.6919 16.358 75.8141 16.2812C75.9391 16.2017 76.0414 16.0682 76.1209 15.8807C76.2005 15.6932 76.2615 15.4347 76.3042 15.1051C76.3468 14.7727 76.378 14.3551 76.3979 13.8523L76.513 10.9545H81.0811V17.5H79.8326V12.054H77.6934L77.5911 14.2784C77.5655 14.8182 77.5101 15.2898 77.4249 15.6932C77.3425 16.0966 77.2218 16.4332 77.0627 16.7031C76.9036 16.9702 76.699 17.1705 76.449 17.304C76.199 17.4347 75.8951 17.5 75.5371 17.5H75.128ZM84.6852 17.6449C84.2704 17.6449 83.8954 17.5682 83.5602 17.4148C83.225 17.2585 82.9593 17.0327 82.7633 16.7372C82.5701 16.4418 82.4735 16.0795 82.4735 15.6506C82.4735 15.2812 82.5446 14.9773 82.6866 14.7386C82.8287 14.5 83.0204 14.3111 83.2619 14.1719C83.5034 14.0327 83.7733 13.9276 84.0716 13.8565C84.3699 13.7855 84.6738 13.7315 84.9835 13.6946C85.3755 13.6491 85.6937 13.6122 85.938 13.5838C86.1824 13.5526 86.3599 13.5028 86.4707 13.4347C86.5815 13.3665 86.6369 13.2557 86.6369 13.1023V13.0724C86.6369 12.7003 86.5318 12.4119 86.3216 12.2074C86.1142 12.0028 85.8045 11.9006 85.3926 11.9006C84.9636 11.9006 84.6255 11.9957 84.3784 12.1861C84.1341 12.3736 83.965 12.5824 83.8713 12.8125L82.6738 12.5398C82.8159 12.142 83.0233 11.821 83.296 11.5767C83.5716 11.3295 83.8883 11.1506 84.2463 11.0398C84.6042 10.9261 84.9806 10.8693 85.3755 10.8693C85.6369 10.8693 85.9139 10.9006 86.2065 10.9631C86.502 11.0227 86.7775 11.1335 87.0332 11.2955C87.2917 11.4574 87.5034 11.6889 87.6681 11.9901C87.8329 12.2884 87.9153 12.6761 87.9153 13.1534V17.5H86.671V16.6051H86.6199C86.5375 16.7699 86.4139 16.9318 86.2491 17.0909C86.0843 17.25 85.8727 17.3821 85.6142 17.4872C85.3556 17.5923 85.046 17.6449 84.6852 17.6449ZM84.9622 16.6222C85.3145 16.6222 85.6156 16.5526 85.8656 16.4134C86.1184 16.2741 86.3102 16.0923 86.4409 15.8679C86.5744 15.6406 86.6412 15.3977 86.6412 15.1392V14.2955C86.5957 14.3409 86.5076 14.3835 86.377 14.4233C86.2491 14.4602 86.1028 14.4929 85.938 14.5213C85.7733 14.5469 85.6127 14.571 85.4565 14.5938C85.3002 14.6136 85.1696 14.6307 85.0645 14.6449C84.8173 14.6761 84.5914 14.7287 84.3869 14.8026C84.1852 14.8764 84.0233 14.983 83.9011 15.1222C83.7818 15.2585 83.7221 15.4403 83.7221 15.6676C83.7221 15.983 83.8386 16.2216 84.0716 16.3835C84.3045 16.5426 84.6014 16.6222 84.9622 16.6222ZM90.861 15.7145L93.7459 10.9545H95.1181V17.5H93.8695V12.7358L90.9973 17.5H89.6124V10.9545H90.861V15.7145ZM93.2005 8.73864H94.2488C94.2488 9.21875 94.0783 9.60938 93.7374 9.91051C93.3993 10.2088 92.9419 10.358 92.3652 10.358C91.7914 10.358 91.3354 10.2088 90.9973 9.91051C90.6593 9.60938 90.4902 9.21875 90.4902 8.73864H91.5343C91.5343 8.9517 91.5968 9.14062 91.7218 9.3054C91.8468 9.46733 92.0613 9.5483 92.3652 9.5483C92.6635 9.5483 92.8766 9.46733 93.0044 9.3054C93.1351 9.14347 93.2005 8.95455 93.2005 8.73864ZM101.267 13.6776V14.7812H97.7218V13.6776H101.267ZM98.0797 10.9545V17.5H96.8311V10.9545H98.0797ZM102.158 10.9545V17.5H100.914V10.9545H102.158Z" fill="#636775"/>
</svg>
