<svg width="84" height="27" viewBox="0 0 84 27" fill="none" xmlns="http://www.w3.org/2000/svg">
<rect x="0.5" y="0.5" width="83" height="26" rx="13" stroke="#636775" stroke-opacity="0.5"/>
<path d="M13.4393 8.77273H14.7433V15.1818H14.8242L19.2646 8.77273H20.4833V17.5H19.1665V11.0994H19.0856L14.6538 17.5H13.4393V8.77273ZM29.2266 8.77273V17.5H27.9141V9.89773H23.8061V17.5H22.4936V8.77273H29.2266ZM35.5621 15.7145L38.4471 10.9545H39.8192V17.5H38.5707V12.7358L35.6985 17.5H34.3136V10.9545H35.5621V15.7145ZM52.3913 13.1364C52.3913 14.0682 52.2209 14.8693 51.88 15.5398C51.5391 16.2074 51.0717 16.7216 50.478 17.0824C49.8871 17.4403 49.2152 17.6193 48.4624 17.6193C47.7067 17.6193 47.032 17.4403 46.4382 17.0824C45.8473 16.7216 45.3814 16.206 45.0405 15.5355C44.6996 14.8651 44.5291 14.0653 44.5291 13.1364C44.5291 12.2045 44.6996 11.4048 45.0405 10.7372C45.3814 10.0668 45.8473 9.55256 46.4382 9.1946C47.032 8.83381 47.7067 8.65341 48.4624 8.65341C49.2152 8.65341 49.8871 8.83381 50.478 9.1946C51.0717 9.55256 51.5391 10.0668 51.88 10.7372C52.2209 11.4048 52.3913 12.2045 52.3913 13.1364ZM51.0874 13.1364C51.0874 12.4261 50.9723 11.8281 50.7422 11.3423C50.5149 10.8537 50.2024 10.4844 49.8047 10.2344C49.4098 9.98153 48.9624 9.85511 48.4624 9.85511C47.9595 9.85511 47.5107 9.98153 47.1158 10.2344C46.7209 10.4844 46.4084 10.8537 46.1783 11.3423C45.951 11.8281 45.8374 12.4261 45.8374 13.1364C45.8374 13.8466 45.951 14.446 46.1783 14.9347C46.4084 15.4205 46.7209 15.7898 47.1158 16.0426C47.5107 16.2926 47.9595 16.4176 48.4624 16.4176C48.9624 16.4176 49.4098 16.2926 49.8047 16.0426C50.2024 15.7898 50.5149 15.4205 50.7422 14.9347C50.9723 14.446 51.0874 13.8466 51.0874 13.1364ZM61.614 13.1364C61.614 14.0682 61.4435 14.8693 61.1026 15.5398C60.7617 16.2074 60.2944 16.7216 59.7006 17.0824C59.1097 17.4403 58.4379 17.6193 57.685 17.6193C56.9293 17.6193 56.2546 17.4403 55.6609 17.0824C55.07 16.7216 54.604 16.206 54.2631 15.5355C53.9222 14.8651 53.7518 14.0653 53.7518 13.1364C53.7518 12.2045 53.9222 11.4048 54.2631 10.7372C54.604 10.0668 55.07 9.55256 55.6609 9.1946C56.2546 8.83381 56.9293 8.65341 57.685 8.65341C58.4379 8.65341 59.1097 8.83381 59.7006 9.1946C60.2944 9.55256 60.7617 10.0668 61.1026 10.7372C61.4435 11.4048 61.614 12.2045 61.614 13.1364ZM60.31 13.1364C60.31 12.4261 60.195 11.8281 59.9648 11.3423C59.7376 10.8537 59.4251 10.4844 59.0273 10.2344C58.6325 9.98153 58.185 9.85511 57.685 9.85511C57.1822 9.85511 56.7333 9.98153 56.3384 10.2344C55.9435 10.4844 55.631 10.8537 55.4009 11.3423C55.1737 11.8281 55.06 12.4261 55.06 13.1364C55.06 13.8466 55.1737 14.446 55.4009 14.9347C55.631 15.4205 55.9435 15.7898 56.3384 16.0426C56.7333 16.2926 57.1822 16.4176 57.685 16.4176C58.185 16.4176 58.6325 16.2926 59.0273 16.0426C59.4251 15.7898 59.7376 15.4205 59.9648 14.9347C60.195 14.446 60.31 13.8466 60.31 13.1364ZM70.8366 13.1364C70.8366 14.0682 70.6662 14.8693 70.3253 15.5398C69.9844 16.2074 69.517 16.7216 68.9233 17.0824C68.3324 17.4403 67.6605 17.6193 66.9077 17.6193C66.152 17.6193 65.4773 17.4403 64.8835 17.0824C64.2926 16.7216 63.8267 16.206 63.4858 15.5355C63.1449 14.8651 62.9744 14.0653 62.9744 13.1364C62.9744 12.2045 63.1449 11.4048 63.4858 10.7372C63.8267 10.0668 64.2926 9.55256 64.8835 9.1946C65.4773 8.83381 66.152 8.65341 66.9077 8.65341C67.6605 8.65341 68.3324 8.83381 68.9233 9.1946C69.517 9.55256 69.9844 10.0668 70.3253 10.7372C70.6662 11.4048 70.8366 12.2045 70.8366 13.1364ZM69.5327 13.1364C69.5327 12.4261 69.4176 11.8281 69.1875 11.3423C68.9602 10.8537 68.6477 10.4844 68.25 10.2344C67.8551 9.98153 67.4077 9.85511 66.9077 9.85511C66.4048 9.85511 65.956 9.98153 65.5611 10.2344C65.1662 10.4844 64.8537 10.8537 64.6236 11.3423C64.3963 11.8281 64.2827 12.4261 64.2827 13.1364C64.2827 13.8466 64.3963 14.446 64.6236 14.9347C64.8537 15.4205 65.1662 15.7898 65.5611 16.0426C65.956 16.2926 66.4048 16.4176 66.9077 16.4176C67.4077 16.4176 67.8551 16.2926 68.25 16.0426C68.6477 15.7898 68.9602 15.4205 69.1875 14.9347C69.4176 14.446 69.5327 13.8466 69.5327 13.1364Z" fill="#636775"/>
</svg>
