<svg width="269" height="27" viewBox="0 0 269 27" fill="none" xmlns="http://www.w3.org/2000/svg">
<rect x="0.5" y="0.5" width="268" height="26" rx="13" stroke="#636775" stroke-opacity="0.5"/>
<path d="M21.1254 11.6108H19.7958C19.7447 11.3267 19.6495 11.0767 19.5103 10.8608C19.3711 10.6449 19.2006 10.4616 18.9989 10.3111C18.7972 10.1605 18.5714 10.0469 18.3214 9.97017C18.0742 9.89347 17.8114 9.85511 17.533 9.85511C17.0302 9.85511 16.5799 9.98153 16.1822 10.2344C15.7873 10.4872 15.4748 10.858 15.2447 11.3466C15.0174 11.8352 14.9038 12.4318 14.9038 13.1364C14.9038 13.8466 15.0174 14.446 15.2447 14.9347C15.4748 15.4233 15.7887 15.7926 16.1864 16.0426C16.5842 16.2926 17.0316 16.4176 17.5288 16.4176C17.8043 16.4176 18.0657 16.3807 18.3129 16.3068C18.5629 16.2301 18.7887 16.1179 18.9904 15.9702C19.1921 15.8224 19.3626 15.642 19.5018 15.429C19.6438 15.2131 19.7418 14.9659 19.7958 14.6875L21.1254 14.6918C21.0543 15.1207 20.9165 15.5156 20.712 15.8764C20.5103 16.2344 20.2504 16.544 19.9322 16.8054C19.6168 17.0639 19.256 17.2642 18.8498 17.4062C18.4435 17.5483 18.0004 17.6193 17.5202 17.6193C16.7646 17.6193 16.0913 17.4403 15.5004 17.0824C14.9094 16.7216 14.4435 16.206 14.1026 15.5355C13.7646 14.8651 13.5955 14.0653 13.5955 13.1364C13.5955 12.2045 13.766 11.4048 14.1069 10.7372C14.4478 10.0668 14.9137 9.55256 15.5046 9.1946C16.0955 8.83381 16.7674 8.65341 17.5202 8.65341C17.9833 8.65341 18.4151 8.72017 18.8157 8.85369C19.2191 8.98437 19.5813 9.17756 19.9023 9.43324C20.2234 9.68608 20.489 9.99574 20.6992 10.3622C20.9094 10.7259 21.0515 11.142 21.1254 11.6108ZM22.5987 19.9545V10.9545H23.843V12.0156H23.9496C24.0234 11.8793 24.13 11.7216 24.2692 11.5426C24.4084 11.3636 24.6016 11.2074 24.8487 11.0739C25.0959 10.9375 25.4226 10.8693 25.8288 10.8693C26.3572 10.8693 26.8288 11.0028 27.2436 11.2699C27.6584 11.5369 27.9837 11.9219 28.2195 12.4247C28.4581 12.9276 28.5774 13.5327 28.5774 14.2401C28.5774 14.9474 28.4595 15.554 28.2237 16.0597C27.9879 16.5625 27.6641 16.9503 27.2521 17.223C26.8402 17.4929 26.37 17.6278 25.8416 17.6278C25.4439 17.6278 25.1186 17.5611 24.8658 17.4276C24.6158 17.294 24.4197 17.1378 24.2777 16.9588C24.1357 16.7798 24.0263 16.6207 23.9496 16.4815H23.8729V19.9545H22.5987ZM23.8473 14.2273C23.8473 14.6875 23.9141 15.0909 24.0476 15.4375C24.1811 15.7841 24.3743 16.0554 24.6271 16.2514C24.88 16.4446 25.1896 16.5412 25.5561 16.5412C25.9368 16.5412 26.255 16.4403 26.5107 16.2386C26.7663 16.0341 26.9595 15.7571 27.0902 15.4077C27.2237 15.0582 27.2905 14.6648 27.2905 14.2273C27.2905 13.7955 27.2251 13.4077 27.0945 13.0639C26.9666 12.7202 26.7734 12.4489 26.5149 12.25C26.2592 12.0511 25.9396 11.9517 25.5561 11.9517C25.1868 11.9517 24.8743 12.0469 24.6186 12.2372C24.3658 12.4276 24.174 12.6932 24.0433 13.0341C23.9126 13.375 23.8473 13.7727 23.8473 14.2273ZM32.7621 17.6321C32.1484 17.6321 31.6129 17.4915 31.1555 17.2102C30.6982 16.929 30.343 16.5355 30.0902 16.0298C29.8374 15.5241 29.7109 14.9332 29.7109 14.2571C29.7109 13.5781 29.8374 12.9844 30.0902 12.4759C30.343 11.9673 30.6982 11.5724 31.1555 11.2912C31.6129 11.0099 32.1484 10.8693 32.7621 10.8693C33.3757 10.8693 33.9112 11.0099 34.3686 11.2912C34.826 11.5724 35.1811 11.9673 35.4339 12.4759C35.6868 12.9844 35.8132 13.5781 35.8132 14.2571C35.8132 14.9332 35.6868 15.5241 35.4339 16.0298C35.1811 16.5355 34.826 16.929 34.3686 17.2102C33.9112 17.4915 33.3757 17.6321 32.7621 17.6321ZM32.7663 16.5625C33.1641 16.5625 33.4936 16.4574 33.755 16.2472C34.0163 16.0369 34.2095 15.7571 34.3345 15.4077C34.4624 15.0582 34.5263 14.6733 34.5263 14.2528C34.5263 13.8352 34.4624 13.4517 34.3345 13.1023C34.2095 12.75 34.0163 12.4673 33.755 12.2543C33.4936 12.0412 33.1641 11.9347 32.7663 11.9347C32.3658 11.9347 32.0334 12.0412 31.7692 12.2543C31.5078 12.4673 31.3132 12.75 31.1854 13.1023C31.0604 13.4517 30.9979 13.8352 30.9979 14.2528C30.9979 14.6733 31.0604 15.0582 31.1854 15.4077C31.3132 15.7571 31.5078 16.0369 31.7692 16.2472C32.0334 16.4574 32.3658 16.5625 32.7663 16.5625ZM37.2354 17.5V10.9545H38.5096V13.6989H39.1232L41.2837 10.9545H42.8604L40.3249 14.1378L42.8903 17.5H41.3093L39.3363 14.8835H38.5096V17.5H37.2354ZM47.0558 19.9545V10.9545H48.3001V12.0156H48.4066C48.4805 11.8793 48.587 11.7216 48.7262 11.5426C48.8654 11.3636 49.0586 11.2074 49.3058 11.0739C49.5529 10.9375 49.8796 10.8693 50.2859 10.8693C50.8143 10.8693 51.2859 11.0028 51.7006 11.2699C52.1154 11.5369 52.4407 11.9219 52.6765 12.4247C52.9151 12.9276 53.0344 13.5327 53.0344 14.2401C53.0344 14.9474 52.9165 15.554 52.6808 16.0597C52.445 16.5625 52.1211 16.9503 51.7092 17.223C51.2972 17.4929 50.8271 17.6278 50.2987 17.6278C49.9009 17.6278 49.5756 17.5611 49.3228 17.4276C49.0728 17.294 48.8768 17.1378 48.7347 16.9588C48.5927 16.7798 48.4833 16.6207 48.4066 16.4815H48.3299V19.9545H47.0558ZM48.3043 14.2273C48.3043 14.6875 48.3711 15.0909 48.5046 15.4375C48.6381 15.7841 48.8313 16.0554 49.0842 16.2514C49.337 16.4446 49.6467 16.5412 50.0131 16.5412C50.3938 16.5412 50.712 16.4403 50.9677 16.2386C51.2234 16.0341 51.4165 15.7571 51.5472 15.4077C51.6808 15.0582 51.7475 14.6648 51.7475 14.2273C51.7475 13.7955 51.6822 13.4077 51.5515 13.0639C51.4237 12.7202 51.2305 12.4489 50.9719 12.25C50.7163 12.0511 50.3967 11.9517 50.0131 11.9517C49.6438 11.9517 49.3313 12.0469 49.0756 12.2372C48.8228 12.4276 48.631 12.6932 48.5004 13.0341C48.3697 13.375 48.3043 13.7727 48.3043 14.2273ZM57.283 17.6321C56.6381 17.6321 56.0827 17.4943 55.6168 17.2188C55.1538 16.9403 54.7958 16.5497 54.543 16.0469C54.293 15.5412 54.168 14.9489 54.168 14.2699C54.168 13.5994 54.293 13.0085 54.543 12.4972C54.7958 11.9858 55.1481 11.5866 55.5998 11.2997C56.0543 11.0128 56.5856 10.8693 57.1935 10.8693C57.5629 10.8693 57.9208 10.9304 58.2674 11.0526C58.614 11.1747 58.9251 11.3665 59.2006 11.6278C59.4762 11.8892 59.6935 12.2287 59.8526 12.6463C60.0117 13.0611 60.0913 13.5653 60.0913 14.1591V14.6108H54.8881V13.6562H58.8427C58.8427 13.321 58.7745 13.0241 58.6381 12.7656C58.5018 12.5043 58.31 12.2983 58.0629 12.1477C57.8185 11.9972 57.5316 11.9219 57.2021 11.9219C56.8441 11.9219 56.5316 12.0099 56.2646 12.1861C56.0004 12.3594 55.7958 12.5866 55.6509 12.8679C55.5089 13.1463 55.4379 13.4489 55.4379 13.7756V14.5213C55.4379 14.9588 55.5146 15.331 55.668 15.6378C55.8242 15.9446 56.0415 16.179 56.32 16.3409C56.5984 16.5 56.9237 16.5795 57.2958 16.5795C57.5373 16.5795 57.7575 16.5455 57.9563 16.4773C58.1552 16.4062 58.3271 16.3011 58.4719 16.1619C58.6168 16.0227 58.7276 15.8509 58.8043 15.6463L60.0103 15.8636C59.9137 16.2187 59.7404 16.5298 59.4904 16.7969C59.2433 17.0611 58.9322 17.267 58.5572 17.4148C58.185 17.5597 57.7603 17.6321 57.283 17.6321ZM65.6896 10.9545V12.054H62.7621V17.5H61.505V10.9545H65.6896ZM68.2848 15.7145L71.1697 10.9545H72.5419V17.5H71.2933V12.7358L68.4212 17.5H67.0362V10.9545H68.2848V15.7145ZM77.0121 17.6321C76.3786 17.6321 75.8331 17.4886 75.3757 17.2017C74.9212 16.9119 74.5717 16.5128 74.3274 16.0043C74.0831 15.4957 73.9609 14.9134 73.9609 14.2571C73.9609 13.5923 74.0859 13.0057 74.3359 12.4972C74.5859 11.9858 74.9382 11.5866 75.3928 11.2997C75.8473 11.0128 76.3828 10.8693 76.9993 10.8693C77.4964 10.8693 77.9396 10.9616 78.3288 11.1463C78.718 11.3281 79.032 11.5838 79.2706 11.9134C79.5121 12.2429 79.6555 12.6278 79.701 13.0682H78.4609C78.3928 12.7614 78.2365 12.4972 77.9922 12.2756C77.7507 12.054 77.4268 11.9432 77.0206 11.9432C76.6655 11.9432 76.3544 12.0369 76.0874 12.2244C75.8232 12.4091 75.6172 12.6733 75.4695 13.017C75.3217 13.358 75.2479 13.7614 75.2479 14.2273C75.2479 14.7045 75.3203 15.1165 75.4652 15.4631C75.6101 15.8097 75.8146 16.0781 76.0788 16.2685C76.3459 16.4588 76.6598 16.554 77.0206 16.554C77.2621 16.554 77.4808 16.5099 77.6768 16.4219C77.8757 16.331 78.0419 16.2017 78.1754 16.0341C78.3118 15.8665 78.407 15.6648 78.4609 15.429H79.701C79.6555 15.8523 79.5178 16.2301 79.2876 16.5625C79.0575 16.8949 78.7493 17.1562 78.3629 17.3466C77.9794 17.5369 77.5291 17.6321 77.0121 17.6321ZM80.5682 12.054V10.9545H86.0909V12.054H83.956V17.5H82.7116V12.054H80.5682ZM87.4386 19.9545V10.9545H88.6829V12.0156H88.7894C88.8633 11.8793 88.9698 11.7216 89.109 11.5426C89.2482 11.3636 89.4414 11.2074 89.6886 11.0739C89.9357 10.9375 90.2624 10.8693 90.6687 10.8693C91.1971 10.8693 91.6687 11.0028 92.0835 11.2699C92.4982 11.5369 92.8235 11.9219 93.0593 12.4247C93.2979 12.9276 93.4173 13.5327 93.4173 14.2401C93.4173 14.9474 93.2994 15.554 93.0636 16.0597C92.8278 16.5625 92.5039 16.9503 92.092 17.223C91.68 17.4929 91.2099 17.6278 90.6815 17.6278C90.2837 17.6278 89.9585 17.5611 89.7056 17.4276C89.4556 17.294 89.2596 17.1378 89.1175 16.9588C88.9755 16.7798 88.8661 16.6207 88.7894 16.4815H88.7127V19.9545H87.4386ZM88.6871 14.2273C88.6871 14.6875 88.7539 15.0909 88.8874 15.4375C89.021 15.7841 89.2141 16.0554 89.467 16.2514C89.7198 16.4446 90.0295 16.5412 90.396 16.5412C90.7766 16.5412 91.0948 16.4403 91.3505 16.2386C91.6062 16.0341 91.7994 15.7571 91.93 15.4077C92.0636 15.0582 92.1303 14.6648 92.1303 14.2273C92.1303 13.7955 92.065 13.4077 91.9343 13.0639C91.8065 12.7202 91.6133 12.4489 91.3548 12.25C91.0991 12.0511 90.7795 11.9517 90.396 11.9517C90.0266 11.9517 89.7141 12.0469 89.4585 12.2372C89.2056 12.4276 89.0138 12.6932 88.8832 13.0341C88.7525 13.375 88.6871 13.7727 88.6871 14.2273ZM96.7496 17.6449C96.3349 17.6449 95.9599 17.5682 95.6246 17.4148C95.2894 17.2585 95.0238 17.0327 94.8278 16.7372C94.6346 16.4418 94.538 16.0795 94.538 15.6506C94.538 15.2812 94.609 14.9773 94.7511 14.7386C94.8931 14.5 95.0849 14.3111 95.3263 14.1719C95.5678 14.0327 95.8377 13.9276 96.136 13.8565C96.4343 13.7855 96.7383 13.7315 97.0479 13.6946C97.44 13.6491 97.7582 13.6122 98.0025 13.5838C98.2468 13.5526 98.4244 13.5028 98.5352 13.4347C98.646 13.3665 98.7013 13.2557 98.7013 13.1023V13.0724C98.7013 12.7003 98.5962 12.4119 98.386 12.2074C98.1786 12.0028 97.869 11.9006 97.457 11.9006C97.0281 11.9006 96.69 11.9957 96.4428 12.1861C96.1985 12.3736 96.0295 12.5824 95.9357 12.8125L94.7383 12.5398C94.8803 12.142 95.0877 11.821 95.3604 11.5767C95.636 11.3295 95.9528 11.1506 96.3107 11.0398C96.6687 10.9261 97.0451 10.8693 97.44 10.8693C97.7013 10.8693 97.9783 10.9006 98.271 10.9631C98.5664 11.0227 98.842 11.1335 99.0977 11.2955C99.3562 11.4574 99.5678 11.6889 99.7326 11.9901C99.8974 12.2884 99.9798 12.6761 99.9798 13.1534V17.5H98.7354V16.6051H98.6843C98.6019 16.7699 98.4783 16.9318 98.3136 17.0909C98.1488 17.25 97.9371 17.3821 97.6786 17.4872C97.4201 17.5923 97.1104 17.6449 96.7496 17.6449ZM97.0266 16.6222C97.3789 16.6222 97.68 16.5526 97.93 16.4134C98.1829 16.2741 98.3746 16.0923 98.5053 15.8679C98.6388 15.6406 98.7056 15.3977 98.7056 15.1392V14.2955C98.6602 14.3409 98.5721 14.3835 98.4414 14.4233C98.3136 14.4602 98.1673 14.4929 98.0025 14.5213C97.8377 14.5469 97.6772 14.571 97.521 14.5938C97.3647 14.6136 97.234 14.6307 97.1289 14.6449C96.8817 14.6761 96.6559 14.7287 96.4513 14.8026C96.2496 14.8764 96.0877 14.983 95.9656 15.1222C95.8462 15.2585 95.7866 15.4403 95.7866 15.6676C95.7866 15.983 95.9031 16.2216 96.136 16.3835C96.369 16.5426 96.6658 16.6222 97.0266 16.6222ZM107.016 10.9545V16.456H107.975V19.6094H106.718V17.5H101.677V10.9545H102.925V16.4006H105.772V10.9545H107.016ZM110.636 15.7145L113.521 10.9545H114.893V17.5H113.645V12.7358L110.773 17.5H109.388V10.9545H110.636V15.7145ZM117.855 15.7145L120.74 10.9545H122.112V17.5H120.864V12.7358L117.991 17.5H116.607V10.9545H117.855V15.7145ZM132.051 8.51705L132.579 9.32244C132.383 9.50142 132.16 9.62926 131.91 9.70597C131.663 9.77983 131.377 9.8267 131.054 9.84659C130.73 9.86364 130.359 9.87926 129.941 9.89347C129.47 9.90767 129.082 10.0099 128.778 10.2003C128.474 10.3878 128.24 10.6662 128.075 11.0355C127.913 11.402 127.808 11.8622 127.76 12.4162H127.841C128.054 12.0099 128.349 11.706 128.727 11.5043C129.108 11.3026 129.535 11.2017 130.01 11.2017C130.538 11.2017 131.008 11.3224 131.42 11.5639C131.832 11.8054 132.156 12.1591 132.392 12.625C132.63 13.0881 132.75 13.6548 132.75 14.3253C132.75 15.0043 132.625 15.5909 132.375 16.0852C132.127 16.5795 131.778 16.9616 131.326 17.2315C130.877 17.4986 130.348 17.6321 129.737 17.6321C129.126 17.6321 128.593 17.4943 128.139 17.2188C127.687 16.9403 127.336 16.5284 127.086 15.983C126.839 15.4375 126.716 14.7642 126.716 13.9631V13.3153C126.716 11.8182 126.983 10.6918 127.517 9.93608C128.051 9.1804 128.849 8.79261 129.912 8.77273C130.255 8.7642 130.562 8.76278 130.832 8.76847C131.102 8.77131 131.338 8.75852 131.539 8.73011C131.744 8.69886 131.914 8.62784 132.051 8.51705ZM129.741 16.5625C130.096 16.5625 130.402 16.473 130.657 16.294C130.916 16.1122 131.115 15.8551 131.254 15.5227C131.393 15.1903 131.463 14.7983 131.463 14.3466C131.463 13.9034 131.393 13.527 131.254 13.2173C131.115 12.9077 130.916 12.6719 130.657 12.5099C130.399 12.3452 130.089 12.2628 129.728 12.2628C129.461 12.2628 129.223 12.3097 129.012 12.4034C128.802 12.4943 128.622 12.6293 128.471 12.8082C128.324 12.9872 128.208 13.206 128.126 13.4645C128.047 13.7202 128.004 14.0142 127.998 14.3466C127.998 15.0227 128.153 15.5611 128.463 15.9616C128.775 16.3622 129.201 16.5625 129.741 16.5625ZM135.422 15.7145L138.306 10.9545H139.679V17.5H138.43V12.7358L135.558 17.5H134.173V10.9545H135.422V15.7145ZM141.004 15.7699H142.308C142.325 16.0369 142.446 16.2429 142.67 16.3878C142.897 16.5327 143.191 16.6051 143.552 16.6051C143.919 16.6051 144.231 16.527 144.49 16.3707C144.748 16.2116 144.877 15.9659 144.877 15.6335C144.877 15.4347 144.828 15.2614 144.728 15.1136C144.632 14.9631 144.494 14.8466 144.315 14.7642C144.139 14.6818 143.93 14.6406 143.689 14.6406H142.623V13.6392H143.689C144.049 13.6392 144.319 13.5568 144.498 13.392C144.677 13.2273 144.767 13.0213 144.767 12.7741C144.767 12.5071 144.67 12.2926 144.477 12.1307C144.287 11.9659 144.021 11.8835 143.68 11.8835C143.333 11.8835 143.045 11.9616 142.815 12.1179C142.585 12.2713 142.464 12.4702 142.453 12.7145H141.166C141.174 12.348 141.285 12.027 141.498 11.7514C141.714 11.473 142.004 11.2571 142.368 11.1037C142.734 10.9474 143.15 10.8693 143.616 10.8693C144.102 10.8693 144.522 10.9474 144.877 11.1037C145.233 11.2599 145.507 11.4759 145.7 11.7514C145.896 12.027 145.994 12.3437 145.994 12.7017C145.994 13.0625 145.886 13.358 145.67 13.5881C145.457 13.8153 145.179 13.9787 144.835 14.0781V14.1463C145.088 14.1634 145.312 14.2401 145.508 14.3764C145.704 14.5128 145.858 14.6932 145.968 14.9176C146.079 15.142 146.135 15.3963 146.135 15.6804C146.135 16.081 146.024 16.4276 145.802 16.7202C145.583 17.0128 145.279 17.2386 144.89 17.3977C144.504 17.554 144.062 17.6321 143.565 17.6321C143.082 17.6321 142.649 17.5568 142.265 17.4062C141.885 17.2528 141.582 17.0369 141.358 16.7585C141.136 16.4801 141.018 16.1506 141.004 15.7699ZM151.886 13.6776V14.7812H148.341V13.6776H151.886ZM148.699 10.9545V17.5H147.45V10.9545H148.699ZM152.777 10.9545V17.5H151.533V10.9545H152.777ZM157.303 17.6321C156.658 17.6321 156.102 17.4943 155.636 17.2188C155.173 16.9403 154.815 16.5497 154.562 16.0469C154.312 15.5412 154.188 14.9489 154.188 14.2699C154.188 13.5994 154.312 13.0085 154.562 12.4972C154.815 11.9858 155.168 11.5866 155.619 11.2997C156.074 11.0128 156.605 10.8693 157.213 10.8693C157.582 10.8693 157.94 10.9304 158.287 11.0526C158.634 11.1747 158.945 11.3665 159.22 11.6278C159.496 11.8892 159.713 12.2287 159.872 12.6463C160.031 13.0611 160.111 13.5653 160.111 14.1591V14.6108H154.908V13.6562H158.862C158.862 13.321 158.794 13.0241 158.658 12.7656C158.521 12.5043 158.33 12.2983 158.082 12.1477C157.838 11.9972 157.551 11.9219 157.222 11.9219C156.864 11.9219 156.551 12.0099 156.284 12.1861C156.02 12.3594 155.815 12.5866 155.67 12.8679C155.528 13.1463 155.457 13.4489 155.457 13.7756V14.5213C155.457 14.9588 155.534 15.331 155.688 15.6378C155.844 15.9446 156.061 16.179 156.339 16.3409C156.618 16.5 156.943 16.5795 157.315 16.5795C157.557 16.5795 157.777 16.5455 157.976 16.4773C158.175 16.4062 158.347 16.3011 158.491 16.1619C158.636 16.0227 158.747 15.8509 158.824 15.6463L160.03 15.8636C159.933 16.2187 159.76 16.5298 159.51 16.7969C159.263 17.0611 158.952 17.267 158.577 17.4148C158.205 17.5597 157.78 17.6321 157.303 17.6321ZM164.282 17.6321C163.648 17.6321 163.103 17.4886 162.645 17.2017C162.191 16.9119 161.841 16.5128 161.597 16.0043C161.353 15.4957 161.23 14.9134 161.23 14.2571C161.23 13.5923 161.355 13.0057 161.605 12.4972C161.855 11.9858 162.208 11.5866 162.662 11.2997C163.117 11.0128 163.652 10.8693 164.269 10.8693C164.766 10.8693 165.209 10.9616 165.598 11.1463C165.988 11.3281 166.301 11.5838 166.54 11.9134C166.782 12.2429 166.925 12.6278 166.971 13.0682H165.73C165.662 12.7614 165.506 12.4972 165.262 12.2756C165.02 12.054 164.696 11.9432 164.29 11.9432C163.935 11.9432 163.624 12.0369 163.357 12.2244C163.093 12.4091 162.887 12.6733 162.739 13.017C162.591 13.358 162.517 13.7614 162.517 14.2273C162.517 14.7045 162.59 15.1165 162.735 15.4631C162.88 15.8097 163.084 16.0781 163.348 16.2685C163.615 16.4588 163.929 16.554 164.29 16.554C164.532 16.554 164.75 16.5099 164.946 16.4219C165.145 16.331 165.311 16.2017 165.445 16.0341C165.581 15.8665 165.676 15.6648 165.73 15.429H166.971C166.925 15.8523 166.787 16.2301 166.557 16.5625C166.327 16.8949 166.019 17.1562 165.632 17.3466C165.249 17.5369 164.799 17.6321 164.282 17.6321ZM170.238 17.6449C169.823 17.6449 169.448 17.5682 169.113 17.4148C168.778 17.2585 168.512 17.0327 168.316 16.7372C168.123 16.4418 168.026 16.0795 168.026 15.6506C168.026 15.2812 168.097 14.9773 168.239 14.7386C168.381 14.5 168.573 14.3111 168.815 14.1719C169.056 14.0327 169.326 13.9276 169.624 13.8565C169.923 13.7855 170.227 13.7315 170.536 13.6946C170.928 13.6491 171.246 13.6122 171.491 13.5838C171.735 13.5526 171.913 13.5028 172.023 13.4347C172.134 13.3665 172.19 13.2557 172.19 13.1023V13.0724C172.19 12.7003 172.085 12.4119 171.874 12.2074C171.667 12.0028 171.357 11.9006 170.945 11.9006C170.516 11.9006 170.178 11.9957 169.931 12.1861C169.687 12.3736 169.518 12.5824 169.424 12.8125L168.227 12.5398C168.369 12.142 168.576 11.821 168.849 11.5767C169.124 11.3295 169.441 11.1506 169.799 11.0398C170.157 10.9261 170.533 10.8693 170.928 10.8693C171.19 10.8693 171.467 10.9006 171.759 10.9631C172.055 11.0227 172.33 11.1335 172.586 11.2955C172.844 11.4574 173.056 11.6889 173.221 11.9901C173.386 12.2884 173.468 12.6761 173.468 13.1534V17.5H172.224V16.6051H172.173C172.09 16.7699 171.967 16.9318 171.802 17.0909C171.637 17.25 171.425 17.3821 171.167 17.4872C170.908 17.5923 170.599 17.6449 170.238 17.6449ZM170.515 16.6222C170.867 16.6222 171.168 16.5526 171.418 16.4134C171.671 16.2741 171.863 16.0923 171.994 15.8679C172.127 15.6406 172.194 15.3977 172.194 15.1392V14.2955C172.148 14.3409 172.06 14.3835 171.93 14.4233C171.802 14.4602 171.656 14.4929 171.491 14.5213C171.326 14.5469 171.165 14.571 171.009 14.5938C170.853 14.6136 170.722 14.6307 170.617 14.6449C170.37 14.6761 170.144 14.7287 169.94 14.8026C169.738 14.8764 169.576 14.983 169.454 15.1222C169.335 15.2585 169.275 15.4403 169.275 15.6676C169.275 15.983 169.391 16.2216 169.624 16.3835C169.857 16.5426 170.154 16.6222 170.515 16.6222ZM181.098 17.6321C180.484 17.6321 179.949 17.4915 179.491 17.2102C179.034 16.929 178.679 16.5355 178.426 16.0298C178.173 15.5241 178.047 14.9332 178.047 14.2571C178.047 13.5781 178.173 12.9844 178.426 12.4759C178.679 11.9673 179.034 11.5724 179.491 11.2912C179.949 11.0099 180.484 10.8693 181.098 10.8693C181.712 10.8693 182.247 11.0099 182.705 11.2912C183.162 11.5724 183.517 11.9673 183.77 12.4759C184.023 12.9844 184.149 13.5781 184.149 14.2571C184.149 14.9332 184.023 15.5241 183.77 16.0298C183.517 16.5355 183.162 16.929 182.705 17.2102C182.247 17.4915 181.712 17.6321 181.098 17.6321ZM181.102 16.5625C181.5 16.5625 181.83 16.4574 182.091 16.2472C182.352 16.0369 182.545 15.7571 182.67 15.4077C182.798 15.0582 182.862 14.6733 182.862 14.2528C182.862 13.8352 182.798 13.4517 182.67 13.1023C182.545 12.75 182.352 12.4673 182.091 12.2543C181.83 12.0412 181.5 11.9347 181.102 11.9347C180.702 11.9347 180.369 12.0412 180.105 12.2543C179.844 12.4673 179.649 12.75 179.521 13.1023C179.396 13.4517 179.334 13.8352 179.334 14.2528C179.334 14.6733 179.396 15.0582 179.521 15.4077C179.649 15.7571 179.844 16.0369 180.105 16.2472C180.369 16.4574 180.702 16.5625 181.102 16.5625ZM184.783 12.054V10.9545H190.306V12.054H188.171V17.5H186.926V12.054H184.783ZM197.85 17.6193C197.265 17.6193 196.743 17.5185 196.282 17.3168C195.825 17.1151 195.463 16.8352 195.196 16.4773C194.931 16.1165 194.789 15.6989 194.77 15.2244H196.108C196.125 15.483 196.211 15.7074 196.368 15.8977C196.527 16.0852 196.734 16.2301 196.99 16.3324C197.245 16.4347 197.529 16.4858 197.842 16.4858C198.186 16.4858 198.49 16.4261 198.754 16.3068C199.021 16.1875 199.23 16.0213 199.38 15.8082C199.531 15.5923 199.606 15.3438 199.606 15.0625C199.606 14.7699 199.531 14.5128 199.38 14.2912C199.233 14.0668 199.015 13.8906 198.728 13.7628C198.444 13.6349 198.1 13.571 197.697 13.571H196.96V12.4972H197.697C198.021 12.4972 198.305 12.4389 198.549 12.3224C198.797 12.206 198.99 12.044 199.129 11.8366C199.268 11.6264 199.338 11.3807 199.338 11.0994C199.338 10.8295 199.277 10.5952 199.154 10.3963C199.035 10.1946 198.865 10.0369 198.643 9.9233C198.424 9.80966 198.166 9.75284 197.868 9.75284C197.583 9.75284 197.318 9.8054 197.071 9.91051C196.826 10.0128 196.627 10.1605 196.474 10.3537C196.321 10.544 196.238 10.7727 196.227 11.0398H194.953C194.967 10.5682 195.106 10.1534 195.37 9.79545C195.637 9.4375 195.99 9.15767 196.427 8.95597C196.865 8.75426 197.35 8.65341 197.885 8.65341C198.444 8.65341 198.927 8.76278 199.333 8.98153C199.743 9.19744 200.058 9.4858 200.279 9.84659C200.504 10.2074 200.615 10.6023 200.612 11.0312C200.615 11.5199 200.478 11.9347 200.203 12.2756C199.93 12.6165 199.566 12.8452 199.112 12.9616V13.0298C199.691 13.1179 200.14 13.348 200.458 13.7202C200.779 14.0923 200.939 14.554 200.936 15.1051C200.939 15.5852 200.805 16.0156 200.535 16.3963C200.268 16.777 199.903 17.0767 199.44 17.2955C198.977 17.5114 198.447 17.6193 197.85 17.6193ZM209.413 15.9233L211.526 10.9545H212.626L209.886 17.5H208.94L206.255 10.9545H207.342L209.413 15.9233ZM206.988 10.9545V17.5H205.739V10.9545H206.988ZM211.871 17.5V10.9545H213.112V17.5H211.871ZM217.631 17.6321C216.986 17.6321 216.43 17.4943 215.964 17.2188C215.501 16.9403 215.143 16.5497 214.891 16.0469C214.641 15.5412 214.516 14.9489 214.516 14.2699C214.516 13.5994 214.641 13.0085 214.891 12.4972C215.143 11.9858 215.496 11.5866 215.947 11.2997C216.402 11.0128 216.933 10.8693 217.541 10.8693C217.911 10.8693 218.268 10.9304 218.615 11.0526C218.962 11.1747 219.273 11.3665 219.548 11.6278C219.824 11.8892 220.041 12.2287 220.2 12.6463C220.359 13.0611 220.439 13.5653 220.439 14.1591V14.6108H215.236V13.6562H219.19C219.19 13.321 219.122 13.0241 218.986 12.7656C218.849 12.5043 218.658 12.2983 218.411 12.1477C218.166 11.9972 217.879 11.9219 217.55 11.9219C217.192 11.9219 216.879 12.0099 216.612 12.1861C216.348 12.3594 216.143 12.5866 215.999 12.8679C215.857 13.1463 215.786 13.4489 215.786 13.7756V14.5213C215.786 14.9588 215.862 15.331 216.016 15.6378C216.172 15.9446 216.389 16.179 216.668 16.3409C216.946 16.5 217.271 16.5795 217.643 16.5795C217.885 16.5795 218.105 16.5455 218.304 16.4773C218.503 16.4062 218.675 16.3011 218.82 16.1619C218.964 16.0227 219.075 15.8509 219.152 15.6463L220.358 15.8636C220.261 16.2187 220.088 16.5298 219.838 16.7969C219.591 17.0611 219.28 17.267 218.905 17.4148C218.533 17.5597 218.108 17.6321 217.631 17.6321ZM224.61 17.6321C223.976 17.6321 223.431 17.4886 222.973 17.2017C222.519 16.9119 222.169 16.5128 221.925 16.0043C221.681 15.4957 221.559 14.9134 221.559 14.2571C221.559 13.5923 221.684 13.0057 221.934 12.4972C222.184 11.9858 222.536 11.5866 222.99 11.2997C223.445 11.0128 223.98 10.8693 224.597 10.8693C225.094 10.8693 225.537 10.9616 225.926 11.1463C226.316 11.3281 226.63 11.5838 226.868 11.9134C227.11 12.2429 227.253 12.6278 227.299 13.0682H226.059C225.99 12.7614 225.834 12.4972 225.59 12.2756C225.348 12.054 225.025 11.9432 224.618 11.9432C224.263 11.9432 223.952 12.0369 223.685 12.2244C223.421 12.4091 223.215 12.6733 223.067 13.017C222.919 13.358 222.846 13.7614 222.846 14.2273C222.846 14.7045 222.918 15.1165 223.063 15.4631C223.208 15.8097 223.412 16.0781 223.676 16.2685C223.944 16.4588 224.257 16.554 224.618 16.554C224.86 16.554 225.078 16.5099 225.275 16.4219C225.473 16.331 225.64 16.2017 225.773 16.0341C225.909 15.8665 226.005 15.6648 226.059 15.429H227.299C227.253 15.8523 227.115 16.2301 226.885 16.5625C226.655 16.8949 226.347 17.1562 225.961 17.3466C225.577 17.5369 225.127 17.6321 224.61 17.6321ZM232.565 17.5V12.0412H230.996C230.624 12.0412 230.335 12.1278 230.127 12.3011C229.92 12.4744 229.816 12.7017 229.816 12.983C229.816 13.2614 229.911 13.4858 230.102 13.6562C230.295 13.8239 230.565 13.9077 230.911 13.9077H232.935V14.9389H230.911C230.428 14.9389 230.011 14.8594 229.658 14.7003C229.309 14.5384 229.039 14.3097 228.849 14.0142C228.661 13.7187 228.567 13.3693 228.567 12.9659C228.567 12.554 228.664 12.1989 228.857 11.9006C229.053 11.5994 229.333 11.3665 229.697 11.2017C230.063 11.0369 230.496 10.9545 230.996 10.9545H233.762V17.5H232.565ZM228.269 17.5L230.114 14.1932H231.418L229.573 17.5H228.269ZM240.798 10.9545V16.456H241.756V19.6094H240.499V17.5H235.458V10.9545H236.707V16.4006H239.553V10.9545H240.798ZM245.92 17.6321C245.275 17.6321 244.719 17.4943 244.254 17.2188C243.79 16.9403 243.433 16.5497 243.18 16.0469C242.93 15.5412 242.805 14.9489 242.805 14.2699C242.805 13.5994 242.93 13.0085 243.18 12.4972C243.433 11.9858 243.785 11.5866 244.237 11.2997C244.691 11.0128 245.222 10.8693 245.83 10.8693C246.2 10.8693 246.558 10.9304 246.904 11.0526C247.251 11.1747 247.562 11.3665 247.837 11.6278C248.113 11.8892 248.33 12.2287 248.489 12.6463C248.648 13.0611 248.728 13.5653 248.728 14.1591V14.6108H243.525V13.6562H247.479C247.479 13.321 247.411 13.0241 247.275 12.7656C247.138 12.5043 246.947 12.2983 246.7 12.1477C246.455 11.9972 246.168 11.9219 245.839 11.9219C245.481 11.9219 245.168 12.0099 244.901 12.1861C244.637 12.3594 244.433 12.5866 244.288 12.8679C244.146 13.1463 244.075 13.4489 244.075 13.7756V14.5213C244.075 14.9588 244.151 15.331 244.305 15.6378C244.461 15.9446 244.678 16.179 244.957 16.3409C245.235 16.5 245.56 16.5795 245.933 16.5795C246.174 16.5795 246.394 16.5455 246.593 16.4773C246.792 16.4062 246.964 16.3011 247.109 16.1619C247.254 16.0227 247.364 15.8509 247.441 15.6463L248.647 15.8636C248.55 16.2187 248.377 16.5298 248.127 16.7969C247.88 17.0611 247.569 17.267 247.194 17.4148C246.822 17.5597 246.397 17.6321 245.92 17.6321ZM250.142 17.5V10.9545H252.856C253.595 10.9545 254.18 11.1122 254.612 11.4276C255.044 11.7401 255.26 12.1648 255.26 12.7017C255.26 13.0852 255.137 13.3892 254.893 13.6136C254.649 13.8381 254.325 13.9886 253.922 14.0653C254.214 14.0994 254.483 14.1875 254.727 14.3295C254.971 14.4687 255.167 14.6562 255.315 14.892C255.466 15.1278 255.541 15.4091 255.541 15.7358C255.541 16.0824 255.451 16.3892 255.272 16.6562C255.093 16.9205 254.833 17.1278 254.493 17.2784C254.154 17.4261 253.747 17.5 253.27 17.5H250.142ZM251.339 16.4347H253.27C253.585 16.4347 253.832 16.3594 254.011 16.2088C254.19 16.0582 254.279 15.8537 254.279 15.5952C254.279 15.2912 254.19 15.0526 254.011 14.8793C253.832 14.7031 253.585 14.6151 253.27 14.6151H251.339V16.4347ZM251.339 13.6818H252.869C253.108 13.6818 253.312 13.6477 253.483 13.5795C253.656 13.5114 253.788 13.4148 253.879 13.2898C253.973 13.1619 254.02 13.0114 254.02 12.8381C254.02 12.5852 253.916 12.3878 253.708 12.2457C253.501 12.1037 253.217 12.0327 252.856 12.0327H251.339V13.6818Z" fill="#636775"/>
</svg>
